ffmpeg started on 2025-03-25 at 15:51:49
Report written to "D:\Convert\FFMetrics\reports\vmaf_report-6.txt"
Log level: 32
Command line:
ffmpeg -hide_banner -nostdin -r 24000/1001 -i "G:\\\xc0\xed\xe8\xec\xe5\\\xce\xed\xe3\xee\xe8\xed\xe3\xe8\\!_35_\xcb\xe5\xf2\xee_2024\\DreamCast\\\xc0\xeb\xff \xe8\xed\xee\xe3\xe4\xe0 \xea\xee\xea\xe5\xf2\xed\xe8\xf7\xe0\xe5\xf2 \xf1\xee \xec\xed\xee\xe9 \xef\xee-\xf0\xf3\xf1\xf1\xea\xe8\\[DC] Roshidere - 10_Telegram_HEVC.mkv" -r 24000/1001 -i "G:\\\xc0\xed\xe8\xec\xe5\\\xce\xed\xe3\xee\xe8\xed\xe3\xe8\\!_35_\xcb\xe5\xf2\xee_2024\\DreamCast\\\xc0\xeb\xff \xe8\xed\xee\xe3\xe4\xe0 \xea\xee\xea\xe5\xf2\xed\xe8\xf7\xe0\xe5\xf2 \xf1\xee \xec\xed\xee\xe9 \xef\xee-\xf0\xf3\xf1\xf1\xea\xe8\\[DC] Roshidere - 10_Telegram.mp4" -lavfi "[0:v]settb=AVTB,setpts=PTS-STARTPTS,format=pix_fmts=yuv420p10,fps=24000/1001,scale=1920:1080:flags=bicubic[main];[1:v]settb=AVTB,setpts=PTS-STARTPTS,format=pix_fmts=yuv420p,fps=24000/1001,scale=1920:1080:flags=bicubic[ref];[main][ref]libvmaf=eof_action=endall:log_path='D\\:/Convert/FFMetrics/logs/vmaf_logfile-6.txt':n_threads=32:pool=Mean:model=version=vmaf_v0.6.1" -f null -
Input #0, matroska,webm, from 'G:\Аниме\Онгоинги\!_35_Лето_2024\DreamCast\Аля иногда кокетничает со мной по-русски\[DC] Roshidere - 10_Telegram_HEVC.mkv':
  Metadata:
    COMPATIBLE_BRANDS: isomiso2avc1mp41
    MAJOR_BRAND     : isom
    MINOR_VERSION   : 512
    ENCODER         : Lavf61.7.100
  Duration: 00:24:17.11, start: -0.021000, bitrate: 937 kb/s
  Stream #0:0: Video: hevc (Main 10), yuv420p10le(tv, bt709, progressive), 1920x1080 [SAR 1:1 DAR 16:9], 23.98 fps, 23.98 tbr, 1k tbn (default)
      Metadata:
        HANDLER_NAME    : VideoHandler
        VENDOR_ID       : [0][0][0][0]
        ENCODER         : Lavc61.19.100 libx265
        BPS             : 740722
        DURATION        : 00:24:16.454708333
        NUMBER_OF_FRAMES: 34920
        NUMBER_OF_BYTES : 134853573
        _STATISTICS_WRITING_APP: mkvpropedit v66.0.0 ('Josie') 64-bit
        _STATISTICS_WRITING_DATE_UTC: 2025-03-21 11:11:16
        _STATISTICS_TAGS: BPS DURATION NUMBER_OF_FRAMES NUMBER_OF_BYTES
  Stream #0:1: Audio: aac (LC), 48000 Hz, stereo, fltp (default)
      Metadata:
        HANDLER_NAME    : SoundHandler
        VENDOR_ID       : [0][0][0][0]
        ENCODER         : Lavc61.19.100 aac
        BPS             : 193196
        DURATION        : 00:24:17.109000000
        NUMBER_OF_FRAMES: 68303
        NUMBER_OF_BYTES : 35188622
        _STATISTICS_WRITING_APP: mkvpropedit v66.0.0 ('Josie') 64-bit
        _STATISTICS_WRITING_DATE_UTC: 2025-03-21 11:11:16
        _STATISTICS_TAGS: BPS DURATION NUMBER_OF_FRAMES NUMBER_OF_BYTES
Input #1, mov,mp4,m4a,3gp,3g2,mj2, from 'G:\Аниме\Онгоинги\!_35_Лето_2024\DreamCast\Аля иногда кокетничает со мной по-русски\[DC] Roshidere - 10_Telegram.mp4':
  Metadata:
    major_brand     : isom
    minor_version   : 512
    compatible_brands: isomiso2avc1mp41
    encoder         : Lavf61.1.100
  Duration: 00:24:17.07, start: 0.000000, bitrate: 3683 kb/s
  Stream #1:0[0x1](und): Video: h264 (High) (avc1 / 0x31637661), yuv420p(tv, bt709, progressive), 1920x1080 [SAR 1:1 DAR 16:9], 3536 kb/s, 23.98 fps, 23.98 tbr, 24k tbn (default)
      Metadata:
        handler_name    : VideoHandler
        vendor_id       : [0][0][0][0]
        encoder         : Lavc61.3.100 h264_qsv
  Stream #1:1[0x2](und): Audio: aac (HE-AACv2) (mp4a / 0x6134706D), 48000 Hz, stereo, fltp, 144 kb/s (default)
      Metadata:
        handler_name    : SoundHandler
        vendor_id       : [0][0][0][0]
Stream mapping:
  Stream #0:0 (hevc) -> settb:default
  Stream #1:0 (h264) -> settb:default
  libvmaf:default -> Stream #0:0 (wrapped_avframe)
  Stream #0:1 -> #0:1 (aac (native) -> pcm_s16le (native))
Output #0, null, to 'pipe:':
  Metadata:
    COMPATIBLE_BRANDS: isomiso2avc1mp41
    MAJOR_BRAND     : isom
    MINOR_VERSION   : 512
    encoder         : Lavf61.7.100
  Stream #0:0: Video: wrapped_avframe, yuv420p10le(tv, bt709, progressive), 1920x1080 [SAR 1:1 DAR 16:9], q=2-31, 200 kb/s, 23.98 fps, 23.98 tbn
      Metadata:
        encoder         : Lavc61.19.100 wrapped_avframe
  Stream #0:1: Audio: pcm_s16le, 48000 Hz, stereo, s16, 1536 kb/s (default)
      Metadata:
        HANDLER_NAME    : SoundHandler
        VENDOR_ID       : [0][0][0][0]
        _STATISTICS_TAGS: BPS DURATION NUMBER_OF_FRAMES NUMBER_OF_BYTES
        BPS             : 193196
        DURATION        : 00:24:17.109000000
        NUMBER_OF_FRAMES: 68303
        NUMBER_OF_BYTES : 35188622
        _STATISTICS_WRITING_APP: mkvpropedit v66.0.0 ('Josie') 64-bit
        _STATISTICS_WRITING_DATE_UTC: 2025-03-21 11:11:16
        encoder         : Lavc61.19.100 pcm_s16le
frame=   38 fps=0.0 q=-0.0 size=N/A time=00:00:01.58 bitrate=N/A speed=3.05x    frame=   84 fps= 81 q=-0.0 size=N/A time=00:00:03.50 bitrate=N/A speed=3.36x    frame=  131 fps= 85 q=-0.0 size=N/A time=00:00:05.46 bitrate=N/A speed=3.52x    frame=  176 fps= 85 q=-0.0 size=N/A time=00:00:07.34 bitrate=N/A speed=3.56x    frame=  222 fps= 86 q=-0.0 size=N/A time=00:00:09.25 bitrate=N/A speed=3.58x    frame=  268 fps= 86 q=-0.0 size=N/A time=00:00:11.17 bitrate=N/A speed=3.61x    frame=  312 fps= 86 q=-0.0 size=N/A time=00:00:13.01 bitrate=N/A speed=3.61x    frame=  359 fps= 87 q=-0.0 size=N/A time=00:00:14.97 bitrate=N/A speed=3.62x    frame=  403 fps= 87 q=-0.0 size=N/A time=00:00:16.80 bitrate=N/A speed=3.62x    frame=  447 fps= 87 q=-0.0 size=N/A time=00:00:18.64 bitrate=N/A speed=3.62x    frame=  496 fps= 87 q=-0.0 size=N/A time=00:00:20.68 bitrate=N/A speed=3.64x    frame=  538 fps= 87 q=-0.0 size=N/A time=00:00:22.43 bitrate=N/A speed=3.62x    frame=  584 fps= 87 q=-0.0 size=N/A time=00:00:24.35 bitrate=N/A speed=3.63x    frame=  630 fps= 87 q=-0.0 size=N/A time=00:00:26.27 bitrate=N/A speed=3.64x    frame=  677 fps= 87 q=-0.0 size=N/A time=00:00:28.23 bitrate=N/A speed=3.65x    frame=  722 fps= 87 q=-0.0 size=N/A time=00:00:30.11 bitrate=N/A speed=3.65x    frame=  765 fps= 87 q=-0.0 size=N/A time=00:00:31.90 bitrate=N/A speed=3.64x    frame=  809 fps= 87 q=-0.0 size=N/A time=00:00:33.74 bitrate=N/A speed=3.64x    frame=  852 fps= 87 q=-0.0 size=N/A time=00:00:35.53 bitrate=N/A speed=3.62x    frame=  897 fps= 87 q=-0.0 size=N/A time=00:00:37.41 bitrate=N/A speed=3.63x    frame=  941 fps= 87 q=-0.0 size=N/A time=00:00:39.24 bitrate=N/A speed=3.62x    frame=  988 fps= 87 q=-0.0 size=N/A time=00:00:41.20 bitrate=N/A speed=3.63x    frame= 1032 fps= 87 q=-0.0 size=N/A time=00:00:43.04 bitrate=N/A speed=3.63x    frame= 1075 fps= 87 q=-0.0 size=N/A time=00:00:44.83 bitrate=N/A speed=3.62x    frame= 1123 fps= 87 q=-0.0 size=N/A time=00:00:46.83 bitrate=N/A speed=3.63x    frame= 1166 fps= 87 q=-0.0 size=N/A time=00:00:48.63 bitrate=N/A speed=3.63x    frame= 1210 fps= 87 q=-0.0 size=N/A time=00:00:50.46 bitrate=N/A speed=3.62x    frame= 1256 fps= 87 q=-0.0 size=N/A time=00:00:52.38 bitrate=N/A speed=3.63x    frame= 1299 fps= 87 q=-0.0 size=N/A time=00:00:54.17 bitrate=N/A speed=3.62x    frame= 1342 fps= 87 q=-0.0 size=N/A time=00:00:55.97 bitrate=N/A speed=3.62x    frame= 1389 fps= 87 q=-0.0 size=N/A time=00:00:57.93 bitrate=N/A speed=3.62x    frame= 1432 fps= 87 q=-0.0 size=N/A time=00:00:59.72 bitrate=N/A speed=3.62x    frame= 1476 fps= 87 q=-0.0 size=N/A time=00:01:01.56 bitrate=N/A speed=3.62x    frame= 1521 fps= 87 q=-0.0 size=N/A time=00:01:03.43 bitrate=N/A speed=3.62x    frame= 1564 fps= 87 q=-0.0 size=N/A time=00:01:05.23 bitrate=N/A speed=3.61x    frame= 1609 fps= 87 q=-0.0 size=N/A time=00:01:07.10 bitrate=N/A speed=3.61x    frame= 1653 fps= 87 q=-0.0 size=N/A time=00:01:08.94 bitrate=N/A speed=3.61x    frame= 1698 fps= 87 q=-0.0 size=N/A time=00:01:10.82 bitrate=N/A speed=3.61x    frame= 1740 fps= 87 q=-0.0 size=N/A time=00:01:12.57 bitrate=N/A speed=3.61x    frame= 1782 fps= 86 q=-0.0 size=N/A time=00:01:14.32 bitrate=N/A speed= 3.6x    frame= 1828 fps= 86 q=-0.0 size=N/A time=00:01:16.24 bitrate=N/A speed= 3.6x    frame= 1870 fps= 86 q=-0.0 size=N/A time=00:01:17.99 bitrate=N/A speed= 3.6x    frame= 1912 fps= 86 q=-0.0 size=N/A time=00:01:19.74 bitrate=N/A speed= 3.6x    frame= 1956 fps= 86 q=-0.0 size=N/A time=00:01:21.58 bitrate=N/A speed=3.59x    frame= 2000 fps= 86 q=-0.0 size=N/A time=00:01:23.41 bitrate=N/A speed=3.59x    frame= 2043 fps= 86 q=-0.0 size=N/A time=00:01:25.21 bitrate=N/A speed=3.59x    frame= 2089 fps= 86 q=-0.0 size=N/A time=00:01:27.12 bitrate=N/A speed= 3.6x    frame= 2135 fps= 86 q=-0.0 size=N/A time=00:01:29.04 bitrate=N/A speed= 3.6x    frame= 2178 fps= 86 q=-0.0 size=N/A time=00:01:30.84 bitrate=N/A speed= 3.6x    frame= 2223 fps= 86 q=-0.0 size=N/A time=00:01:32.71 bitrate=N/A speed=3.59x    frame= 2267 fps= 86 q=-0.0 size=N/A time=00:01:34.55 bitrate=N/A speed=3.59x    frame= 2310 fps= 86 q=-0.0 size=N/A time=00:01:36.34 bitrate=N/A speed=3.59x    frame= 2354 fps= 86 q=-0.0 size=N/A time=00:01:38.18 bitrate=N/A speed=3.59x    frame= 2399 fps= 86 q=-0.0 size=N/A time=00:01:40.05 bitrate=N/A speed=3.59x    frame= 2442 fps= 86 q=-0.0 size=N/A time=00:01:41.85 bitrate=N/A speed=3.59x    frame= 2487 fps= 86 q=-0.0 size=N/A time=00:01:43.72 bitrate=N/A speed=3.59x    frame= 2531 fps= 86 q=-0.0 size=N/A time=00:01:45.56 bitrate=N/A speed=3.59x    frame= 2573 fps= 86 q=-0.0 size=N/A time=00:01:47.31 bitrate=N/A speed=3.59x    frame= 2619 fps= 86 q=-0.0 size=N/A time=00:01:49.23 bitrate=N/A speed=3.59x    frame= 2665 fps= 86 q=-0.0 size=N/A time=00:01:51.15 bitrate=N/A speed=3.59x    frame= 2712 fps= 86 q=-0.0 size=N/A time=00:01:53.11 bitrate=N/A speed=3.59x    frame= 2756 fps= 86 q=-0.0 size=N/A time=00:01:54.94 bitrate=N/A speed=3.59x    frame= 2800 fps= 86 q=-0.0 size=N/A time=00:01:56.78 bitrate=N/A speed=3.59x    frame= 2846 fps= 86 q=-0.0 size=N/A time=00:01:58.70 bitrate=N/A speed= 3.6x    frame= 2893 fps= 86 q=-0.0 size=N/A time=00:02:00.66 bitrate=N/A speed= 3.6x    frame= 2936 fps= 86 q=-0.0 size=N/A time=00:02:02.45 bitrate=N/A speed= 3.6x    frame= 2982 fps= 86 q=-0.0 size=N/A time=00:02:04.37 bitrate=N/A speed= 3.6x    frame= 3025 fps= 86 q=-0.0 size=N/A time=00:02:06.16 bitrate=N/A speed= 3.6x    frame= 3068 fps= 86 q=-0.0 size=N/A time=00:02:07.96 bitrate=N/A speed= 3.6x    frame= 3114 fps= 86 q=-0.0 size=N/A time=00:02:09.87 bitrate=N/A speed= 3.6x    frame= 3158 fps= 86 q=-0.0 size=N/A time=00:02:11.71 bitrate=N/A speed= 3.6x    frame= 3201 fps= 86 q=-0.0 size=N/A time=00:02:13.50 bitrate=N/A speed=3.59x    frame= 3247 fps= 86 q=-0.0 size=N/A time=00:02:15.42 bitrate=N/A speed= 3.6x    frame= 3291 fps= 86 q=-0.0 size=N/A time=00:02:17.26 bitrate=N/A speed= 3.6x    frame= 3335 fps= 86 q=-0.0 size=N/A time=00:02:19.09 bitrate=N/A speed= 3.6x    frame= 3383 fps= 86 q=-0.0 size=N/A time=00:02:21.09 bitrate=N/A speed= 3.6x    frame= 3426 fps= 86 q=-0.0 size=N/A time=00:02:22.89 bitrate=N/A speed= 3.6x    frame= 3469 fps= 86 q=-0.0 size=N/A time=00:02:24.68 bitrate=N/A speed=3.59x    frame= 3514 fps= 86 q=-0.0 size=N/A time=00:02:26.56 bitrate=N/A speed=3.59x    frame= 3558 fps= 86 q=-0.0 size=N/A time=00:02:28.39 bitrate=N/A speed=3.59x    frame= 3602 fps= 86 q=-0.0 size=N/A time=00:02:30.23 bitrate=N/A speed=3.59x    frame= 3646 fps= 86 q=-0.0 size=N/A time=00:02:32.06 bitrate=N/A speed=3.59x    frame= 3689 fps= 86 q=-0.0 size=N/A time=00:02:33.86 bitrate=N/A speed=3.59x    frame= 3734 fps= 86 q=-0.0 size=N/A time=00:02:35.73 bitrate=N/A speed=3.59x    frame= 3779 fps= 86 q=-0.0 size=N/A time=00:02:37.61 bitrate=N/A speed=3.59x    frame= 3823 fps= 86 q=-0.0 size=N/A time=00:02:39.45 bitrate=N/A speed=3.59x    frame= 3867 fps= 86 q=-0.0 size=N/A time=00:02:41.28 bitrate=N/A speed=3.59x    frame= 3912 fps= 86 q=-0.0 size=N/A time=00:02:43.16 bitrate=N/A speed=3.59x    frame= 3957 fps= 86 q=-0.0 size=N/A time=00:02:45.03 bitrate=N/A speed=3.59x    frame= 3999 fps= 86 q=-0.0 size=N/A time=00:02:46.79 bitrate=N/A speed=3.59x    frame= 4043 fps= 86 q=-0.0 size=N/A time=00:02:48.62 bitrate=N/A speed=3.59x    frame= 4089 fps= 86 q=-0.0 size=N/A time=00:02:50.54 bitrate=N/A speed=3.59x    frame= 4134 fps= 86 q=-0.0 size=N/A time=00:02:52.42 bitrate=N/A speed=3.59x    frame= 4178 fps= 86 q=-0.0 size=N/A time=00:02:54.25 bitrate=N/A speed=3.59x    frame= 4223 fps= 86 q=-0.0 size=N/A time=00:02:56.13 bitrate=N/A speed=3.59x    frame= 4267 fps= 86 q=-0.0 size=N/A time=00:02:57.96 bitrate=N/A speed=3.59x    frame= 4313 fps= 86 q=-0.0 size=N/A time=00:02:59.88 bitrate=N/A speed=3.59x    frame= 4356 fps= 86 q=-0.0 size=N/A time=00:03:01.68 bitrate=N/A speed=3.59x    frame= 4402 fps= 86 q=-0.0 size=N/A time=00:03:03.60 bitrate=N/A speed=3.59x    frame= 4443 fps= 86 q=-0.0 size=N/A time=00:03:05.31 bitrate=N/A speed=3.59x    frame= 4487 fps= 86 q=-0.0 size=N/A time=00:03:07.14 bitrate=N/A speed=3.59x    frame= 4532 fps= 86 q=-0.0 size=N/A time=00:03:09.02 bitrate=N/A speed=3.59x    frame= 4579 fps= 86 q=-0.0 size=N/A time=00:03:10.98 bitrate=N/A speed=3.59x    frame= 4625 fps= 86 q=-0.0 size=N/A time=00:03:12.90 bitrate=N/A speed=3.59x    frame= 4671 fps= 86 q=-0.0 size=N/A time=00:03:14.81 bitrate=N/A speed=3.59x    frame= 4715 fps= 86 q=-0.0 size=N/A time=00:03:16.65 bitrate=N/A speed=3.59x    frame= 4759 fps= 86 q=-0.0 size=N/A time=00:03:18.48 bitrate=N/A speed=3.59x    frame= 4803 fps= 86 q=-0.0 size=N/A time=00:03:20.32 bitrate=N/A speed=3.59x    frame= 4844 fps= 86 q=-0.0 size=N/A time=00:03:22.03 bitrate=N/A speed=3.59x    frame= 4887 fps= 86 q=-0.0 size=N/A time=00:03:23.82 bitrate=N/A speed=3.59x    frame= 4933 fps= 86 q=-0.0 size=N/A time=00:03:25.74 bitrate=N/A speed=3.59x    frame= 4977 fps= 86 q=-0.0 size=N/A time=00:03:27.58 bitrate=N/A speed=3.59x    frame= 5025 fps= 86 q=-0.0 size=N/A time=00:03:29.58 bitrate=N/A speed=3.59x    frame= 5070 fps= 86 q=-0.0 size=N/A time=00:03:31.46 bitrate=N/A speed=3.59x    frame= 5113 fps= 86 q=-0.0 size=N/A time=00:03:33.25 bitrate=N/A speed=3.59x    frame= 5157 fps= 86 q=-0.0 size=N/A time=00:03:35.08 bitrate=N/A speed=3.59x    frame= 5199 fps= 86 q=-0.0 size=N/A time=00:03:36.84 bitrate=N/A speed=3.59x    frame= 5242 fps= 86 q=-0.0 size=N/A time=00:03:38.67 bitrate=N/A speed=3.59x    frame= 5288 fps= 86 q=-0.0 size=N/A time=00:03:40.55 bitrate=N/A speed=3.59x    frame= 5332 fps= 86 q=-0.0 size=N/A time=00:03:42.38 bitrate=N/A speed=3.59x    frame= 5376 fps= 86 q=-0.0 size=N/A time=00:03:44.22 bitrate=N/A speed=3.59x    frame= 5419 fps= 86 q=-0.0 size=N/A time=00:03:46.01 bitrate=N/A speed=3.59x    frame= 5462 fps= 86 q=-0.0 size=N/A time=00:03:47.81 bitrate=N/A speed=3.59x    frame= 5507 fps= 86 q=-0.0 size=N/A time=00:03:49.68 bitrate=N/A speed=3.59x    frame= 5554 fps= 86 q=-0.0 size=N/A time=00:03:51.64 bitrate=N/A speed=3.59x    frame= 5597 fps= 86 q=-0.0 size=N/A time=00:03:53.44 bitrate=N/A speed=3.59x    frame= 5641 fps= 86 q=-0.0 size=N/A time=00:03:55.27 bitrate=N/A speed=3.59x    frame= 5684 fps= 86 q=-0.0 size=N/A time=00:03:57.07 bitrate=N/A speed=3.59x    frame= 5729 fps= 86 q=-0.0 size=N/A time=00:03:58.94 bitrate=N/A speed=3.59x    frame= 5775 fps= 86 q=-0.0 size=N/A time=00:04:00.86 bitrate=N/A speed=3.59x    frame= 5818 fps= 86 q=-0.0 size=N/A time=00:04:02.65 bitrate=N/A speed=3.59x    frame= 5861 fps= 86 q=-0.0 size=N/A time=00:04:04.45 bitrate=N/A speed=3.59x    frame= 5906 fps= 86 q=-0.0 size=N/A time=00:04:06.32 bitrate=N/A speed=3.59x    frame= 5949 fps= 86 q=-0.0 size=N/A time=00:04:08.12 bitrate=N/A speed=3.59x    frame= 5993 fps= 86 q=-0.0 size=N/A time=00:04:09.95 bitrate=N/A speed=3.59x    frame= 6038 fps= 86 q=-0.0 size=N/A time=00:04:11.83 bitrate=N/A speed=3.59x    frame= 6084 fps= 86 q=-0.0 size=N/A time=00:04:13.75 bitrate=N/A speed=3.59x    frame= 6128 fps= 86 q=-0.0 size=N/A time=00:04:15.58 bitrate=N/A speed=3.59x    frame= 6173 fps= 86 q=-0.0 size=N/A time=00:04:17.46 bitrate=N/A speed=3.59x    frame= 6218 fps= 86 q=-0.0 size=N/A time=00:04:19.34 bitrate=N/A speed=3.59x    frame= 6260 fps= 86 q=-0.0 size=N/A time=00:04:21.09 bitrate=N/A speed=3.59x    frame= 6303 fps= 86 q=-0.0 size=N/A time=00:04:22.88 bitrate=N/A speed=3.59x    frame= 6348 fps= 86 q=-0.0 size=N/A time=00:04:24.76 bitrate=N/A speed=3.59x    frame= 6392 fps= 86 q=-0.0 size=N/A time=00:04:26.59 bitrate=N/A speed=3.59x    frame= 6438 fps= 86 q=-0.0 size=N/A time=00:04:28.51 bitrate=N/A speed=3.59x    frame= 6482 fps= 86 q=-0.0 size=N/A time=00:04:30.35 bitrate=N/A speed=3.59x    frame= 6524 fps= 86 q=-0.0 size=N/A time=00:04:32.10 bitrate=N/A speed=3.59x    frame= 6572 fps= 86 q=-0.0 size=N/A time=00:04:34.10 bitrate=N/A speed=3.59x    frame= 6616 fps= 86 q=-0.0 size=N/A time=00:04:35.94 bitrate=N/A speed=3.59x    frame= 6664 fps= 86 q=-0.0 size=N/A time=00:04:37.94 bitrate=N/A speed=3.59x    frame= 6707 fps= 86 q=-0.0 size=N/A time=00:04:39.73 bitrate=N/A speed=3.59x    frame= 6752 fps= 86 q=-0.0 size=N/A time=00:04:41.61 bitrate=N/A speed=3.59x    frame= 6798 fps= 86 q=-0.0 size=N/A time=00:04:43.53 bitrate=N/A speed=3.59x    frame= 6842 fps= 86 q=-0.0 size=N/A time=00:04:45.36 bitrate=N/A speed=3.59x    frame= 6887 fps= 86 q=-0.0 size=N/A time=00:04:47.24 bitrate=N/A speed=3.59x    frame= 6930 fps= 86 q=-0.0 size=N/A time=00:04:49.03 bitrate=N/A speed=3.59x    frame= 6975 fps= 86 q=-0.0 size=N/A time=00:04:50.91 bitrate=N/A speed=3.59x    frame= 7018 fps= 86 q=-0.0 size=N/A time=00:04:52.70 bitrate=N/A speed=3.59x    frame= 7062 fps= 86 q=-0.0 size=N/A time=00:04:54.54 bitrate=N/A speed=3.59x    frame= 7109 fps= 86 q=-0.0 size=N/A time=00:04:56.50 bitrate=N/A speed=3.59x    frame= 7152 fps= 86 q=-0.0 size=N/A time=00:04:58.29 bitrate=N/A speed=3.59x    frame= 7195 fps= 86 q=-0.0 size=N/A time=00:05:00.09 bitrate=N/A speed=3.59x    frame= 7241 fps= 86 q=-0.0 size=N/A time=00:05:02.01 bitrate=N/A speed=3.59x    frame= 7284 fps= 86 q=-0.0 size=N/A time=00:05:03.80 bitrate=N/A speed=3.59x    frame= 7326 fps= 86 q=-0.0 size=N/A time=00:05:05.55 bitrate=N/A speed=3.59x    frame= 7371 fps= 86 q=-0.0 size=N/A time=00:05:07.43 bitrate=N/A speed=3.59x    frame= 7414 fps= 86 q=-0.0 size=N/A time=00:05:09.22 bitrate=N/A speed=3.59x    frame= 7458 fps= 86 q=-0.0 size=N/A time=00:05:11.06 bitrate=N/A speed=3.59x    frame= 7503 fps= 86 q=-0.0 size=N/A time=00:05:12.93 bitrate=N/A speed=3.59x    frame= 7547 fps= 86 q=-0.0 size=N/A time=00:05:14.77 bitrate=N/A speed=3.59x    frame= 7592 fps= 86 q=-0.0 size=N/A time=00:05:16.64 bitrate=N/A speed=3.59x    frame= 7635 fps= 86 q=-0.0 size=N/A time=00:05:18.44 bitrate=N/A speed=3.59x    frame= 7681 fps= 86 q=-0.0 size=N/A time=00:05:20.36 bitrate=N/A speed=3.59x    frame= 7725 fps= 86 q=-0.0 size=N/A time=00:05:22.19 bitrate=N/A speed=3.59x    frame= 7768 fps= 86 q=-0.0 size=N/A time=00:05:23.99 bitrate=N/A speed=3.59x    frame= 7812 fps= 86 q=-0.0 size=N/A time=00:05:25.82 bitrate=N/A speed=3.59x    frame= 7855 fps= 86 q=-0.0 size=N/A time=00:05:27.61 bitrate=N/A speed=3.59x    frame= 7900 fps= 86 q=-0.0 size=N/A time=00:05:29.49 bitrate=N/A speed=3.59x    frame= 7942 fps= 86 q=-0.0 size=N/A time=00:05:31.24 bitrate=N/A speed=3.59x    frame= 7985 fps= 86 q=-0.0 size=N/A time=00:05:33.04 bitrate=N/A speed=3.59x    frame= 8029 fps= 86 q=-0.0 size=N/A time=00:05:34.87 bitrate=N/A speed=3.58x    frame= 8073 fps= 86 q=-0.0 size=N/A time=00:05:36.71 bitrate=N/A speed=3.58x    frame= 8119 fps= 86 q=-0.0 size=N/A time=00:05:38.62 bitrate=N/A speed=3.59x    frame= 8165 fps= 86 q=-0.0 size=N/A time=00:05:40.54 bitrate=N/A speed=3.59x    frame= 8209 fps= 86 q=-0.0 size=N/A time=00:05:42.38 bitrate=N/A speed=3.59x    frame= 8255 fps= 86 q=-0.0 size=N/A time=00:05:44.30 bitrate=N/A speed=3.59x    frame= 8297 fps= 86 q=-0.0 size=N/A time=00:05:46.05 bitrate=N/A speed=3.59x    frame= 8341 fps= 86 q=-0.0 size=N/A time=00:05:47.88 bitrate=N/A speed=3.59x    frame= 8387 fps= 86 q=-0.0 size=N/A time=00:05:49.80 bitrate=N/A speed=3.59x    frame= 8429 fps= 86 q=-0.0 size=N/A time=00:05:51.55 bitrate=N/A speed=3.59x    frame= 8476 fps= 86 q=-0.0 size=N/A time=00:05:53.51 bitrate=N/A speed=3.59x    frame= 8520 fps= 86 q=-0.0 size=N/A time=00:05:55.35 bitrate=N/A speed=3.59x    frame= 8565 fps= 86 q=-0.0 size=N/A time=00:05:57.23 bitrate=N/A speed=3.59x    frame= 8608 fps= 86 q=-0.0 size=N/A time=00:05:59.02 bitrate=N/A speed=3.59x    frame= 8652 fps= 86 q=-0.0 size=N/A time=00:06:00.86 bitrate=N/A speed=3.59x    frame= 8694 fps= 86 q=-0.0 size=N/A time=00:06:02.61 bitrate=N/A speed=3.59x    frame= 8739 fps= 86 q=-0.0 size=N/A time=00:06:04.48 bitrate=N/A speed=3.59x    frame= 8784 fps= 86 q=-0.0 size=N/A time=00:06:06.36 bitrate=N/A speed=3.59x    frame= 8829 fps= 86 q=-0.0 size=N/A time=00:06:08.24 bitrate=N/A speed=3.59x    frame= 8873 fps= 86 q=-0.0 size=N/A time=00:06:10.07 bitrate=N/A speed=3.59x    frame= 8917 fps= 86 q=-0.0 size=N/A time=00:06:11.91 bitrate=N/A speed=3.59x    frame= 8962 fps= 86 q=-0.0 size=N/A time=00:06:13.79 bitrate=N/A speed=3.59x    frame= 9005 fps= 86 q=-0.0 size=N/A time=00:06:15.58 bitrate=N/A speed=3.59x    frame= 9051 fps= 86 q=-0.0 size=N/A time=00:06:17.50 bitrate=N/A speed=3.59x    frame= 9097 fps= 86 q=-0.0 size=N/A time=00:06:19.46 bitrate=N/A speed=3.59x    frame= 9143 fps= 86 q=-0.0 size=N/A time=00:06:21.33 bitrate=N/A speed=3.59x    frame= 9188 fps= 86 q=-0.0 size=N/A time=00:06:23.21 bitrate=N/A speed=3.59x    frame= 9231 fps= 86 q=-0.0 size=N/A time=00:06:25.00 bitrate=N/A speed=3.59x    frame= 9273 fps= 86 q=-0.0 size=N/A time=00:06:26.76 bitrate=N/A speed=3.59x    frame= 9317 fps= 86 q=-0.0 size=N/A time=00:06:28.59 bitrate=N/A speed=3.59x    frame= 9359 fps= 86 q=-0.0 size=N/A time=00:06:30.34 bitrate=N/A speed=3.58x    frame= 9404 fps= 86 q=-0.0 size=N/A time=00:06:32.22 bitrate=N/A speed=3.58x    frame= 9448 fps= 86 q=-0.0 size=N/A time=00:06:34.06 bitrate=N/A speed=3.58x    frame= 9490 fps= 86 q=-0.0 size=N/A time=00:06:35.81 bitrate=N/A speed=3.58x    frame= 9535 fps= 86 q=-0.0 size=N/A time=00:06:37.68 bitrate=N/A speed=3.58x    frame= 9580 fps= 86 q=-0.0 size=N/A time=00:06:39.56 bitrate=N/A speed=3.58x    frame= 9624 fps= 86 q=-0.0 size=N/A time=00:06:41.40 bitrate=N/A speed=3.58x    frame= 9669 fps= 86 q=-0.0 size=N/A time=00:06:43.27 bitrate=N/A speed=3.58x    frame= 9710 fps= 86 q=-0.0 size=N/A time=00:06:44.98 bitrate=N/A speed=3.58x    frame= 9755 fps= 86 q=-0.0 size=N/A time=00:06:46.86 bitrate=N/A speed=3.58x    frame= 9798 fps= 86 q=-0.0 size=N/A time=00:06:48.65 bitrate=N/A speed=3.58x    frame= 9843 fps= 86 q=-0.0 size=N/A time=00:06:50.53 bitrate=N/A speed=3.58x    frame= 9888 fps= 86 q=-0.0 size=N/A time=00:06:52.41 bitrate=N/A speed=3.58x    frame= 9930 fps= 86 q=-0.0 size=N/A time=00:06:54.16 bitrate=N/A speed=3.58x    frame= 9976 fps= 86 q=-0.0 size=N/A time=00:06:56.08 bitrate=N/A speed=3.58x    frame=10019 fps= 86 q=-0.0 size=N/A time=00:06:57.87 bitrate=N/A speed=3.58x    frame=10063 fps= 86 q=-0.0 size=N/A time=00:06:59.71 bitrate=N/A speed=3.58x    frame=10106 fps= 86 q=-0.0 size=N/A time=00:07:01.50 bitrate=N/A speed=3.58x    frame=10153 fps= 86 q=-0.0 size=N/A time=00:07:03.46 bitrate=N/A speed=3.58x    frame=10198 fps= 86 q=-0.0 size=N/A time=00:07:05.34 bitrate=N/A speed=3.58x    frame=10243 fps= 86 q=-0.0 size=N/A time=00:07:07.21 bitrate=N/A speed=3.58x    frame=10285 fps= 86 q=-0.0 size=N/A time=00:07:08.97 bitrate=N/A speed=3.58x    frame=10332 fps= 86 q=-0.0 size=N/A time=00:07:10.93 bitrate=N/A speed=3.58x    frame=10374 fps= 86 q=-0.0 size=N/A time=00:07:12.68 bitrate=N/A speed=3.58x    frame=10420 fps= 86 q=-0.0 size=N/A time=00:07:14.60 bitrate=N/A speed=3.58x    frame=10463 fps= 86 q=-0.0 size=N/A time=00:07:16.39 bitrate=N/A speed=3.58x    frame=10505 fps= 86 q=-0.0 size=N/A time=00:07:18.14 bitrate=N/A speed=3.58x    frame=10550 fps= 86 q=-0.0 size=N/A time=00:07:20.02 bitrate=N/A speed=3.58x    frame=10592 fps= 86 q=-0.0 size=N/A time=00:07:21.77 bitrate=N/A speed=3.58x    frame=10635 fps= 86 q=-0.0 size=N/A time=00:07:23.56 bitrate=N/A speed=3.58x    frame=10680 fps= 86 q=-0.0 size=N/A time=00:07:25.44 bitrate=N/A speed=3.58x    frame=10723 fps= 86 q=-0.0 size=N/A time=00:07:27.23 bitrate=N/A speed=3.58x    frame=10768 fps= 86 q=-0.0 size=N/A time=00:07:29.11 bitrate=N/A speed=3.58x    frame=10811 fps= 86 q=-0.0 size=N/A time=00:07:30.90 bitrate=N/A speed=3.58x    frame=10851 fps= 86 q=-0.0 size=N/A time=00:07:32.57 bitrate=N/A speed=3.58x    frame=10887 fps= 86 q=-0.0 size=N/A time=00:07:34.07 bitrate=N/A speed=3.58x    frame=10931 fps= 86 q=-0.0 size=N/A time=00:07:35.91 bitrate=N/A speed=3.58x    frame=10975 fps= 86 q=-0.0 size=N/A time=00:07:37.74 bitrate=N/A speed=3.58x    frame=11017 fps= 86 q=-0.0 size=N/A time=00:07:39.50 bitrate=N/A speed=3.58x    frame=11060 fps= 86 q=-0.0 size=N/A time=00:07:41.29 bitrate=N/A speed=3.58x    frame=11105 fps= 86 q=-0.0 size=N/A time=00:07:43.17 bitrate=N/A speed=3.58x    frame=11146 fps= 86 q=-0.0 size=N/A time=00:07:44.88 bitrate=N/A speed=3.57x    frame=11192 fps= 86 q=-0.0 size=N/A time=00:07:46.79 bitrate=N/A speed=3.57x    frame=11233 fps= 86 q=-0.0 size=N/A time=00:07:48.50 bitrate=N/A speed=3.57x    frame=11276 fps= 86 q=-0.0 size=N/A time=00:07:50.30 bitrate=N/A speed=3.57x    frame=11319 fps= 86 q=-0.0 size=N/A time=00:07:52.09 bitrate=N/A speed=3.57x    frame=11365 fps= 86 q=-0.0 size=N/A time=00:07:54.01 bitrate=N/A speed=3.57x    frame=11408 fps= 86 q=-0.0 size=N/A time=00:07:55.80 bitrate=N/A speed=3.57x    frame=11451 fps= 86 q=-0.0 size=N/A time=00:07:57.60 bitrate=N/A speed=3.57x    frame=11494 fps= 86 q=-0.0 size=N/A time=00:07:59.39 bitrate=N/A speed=3.57x    frame=11537 fps= 86 q=-0.0 size=N/A time=00:08:01.18 bitrate=N/A speed=3.57x    frame=11580 fps= 86 q=-0.0 size=N/A time=00:08:02.98 bitrate=N/A speed=3.57x    frame=11625 fps= 86 q=-0.0 size=N/A time=00:08:04.85 bitrate=N/A speed=3.57x    frame=11667 fps= 86 q=-0.0 size=N/A time=00:08:06.61 bitrate=N/A speed=3.57x    frame=11714 fps= 86 q=-0.0 size=N/A time=00:08:08.57 bitrate=N/A speed=3.57x    frame=11757 fps= 86 q=-0.0 size=N/A time=00:08:10.36 bitrate=N/A speed=3.57x    frame=11802 fps= 86 q=-0.0 size=N/A time=00:08:12.24 bitrate=N/A speed=3.57x    frame=11842 fps= 86 q=-0.0 size=N/A time=00:08:13.91 bitrate=N/A speed=3.57x    frame=11887 fps= 86 q=-0.0 size=N/A time=00:08:15.78 bitrate=N/A speed=3.57x    frame=11930 fps= 86 q=-0.0 size=N/A time=00:08:17.58 bitrate=N/A speed=3.57x    frame=11974 fps= 86 q=-0.0 size=N/A time=00:08:19.41 bitrate=N/A speed=3.57x    frame=12015 fps= 86 q=-0.0 size=N/A time=00:08:21.12 bitrate=N/A speed=3.57x    frame=12059 fps= 86 q=-0.0 size=N/A time=00:08:22.96 bitrate=N/A speed=3.57x    frame=12100 fps= 86 q=-0.0 size=N/A time=00:08:24.67 bitrate=N/A speed=3.57x    frame=12142 fps= 86 q=-0.0 size=N/A time=00:08:26.42 bitrate=N/A speed=3.57x    frame=12186 fps= 86 q=-0.0 size=N/A time=00:08:28.25 bitrate=N/A speed=3.57x    frame=12231 fps= 86 q=-0.0 size=N/A time=00:08:30.13 bitrate=N/A speed=3.57x    frame=12274 fps= 86 q=-0.0 size=N/A time=00:08:31.92 bitrate=N/A speed=3.57x    frame=12320 fps= 86 q=-0.0 size=N/A time=00:08:33.84 bitrate=N/A speed=3.57x    frame=12365 fps= 86 q=-0.0 size=N/A time=00:08:35.72 bitrate=N/A speed=3.57x    frame=12409 fps= 86 q=-0.0 size=N/A time=00:08:37.55 bitrate=N/A speed=3.57x    frame=12453 fps= 86 q=-0.0 size=N/A time=00:08:39.39 bitrate=N/A speed=3.57x    frame=12498 fps= 86 q=-0.0 size=N/A time=00:08:41.27 bitrate=N/A speed=3.57x    frame=12543 fps= 86 q=-0.0 size=N/A time=00:08:43.14 bitrate=N/A speed=3.57x    frame=12589 fps= 86 q=-0.0 size=N/A time=00:08:45.06 bitrate=N/A speed=3.57x    frame=12633 fps= 86 q=-0.0 size=N/A time=00:08:46.90 bitrate=N/A speed=3.57x    frame=12676 fps= 86 q=-0.0 size=N/A time=00:08:48.69 bitrate=N/A speed=3.57x    frame=12720 fps= 86 q=-0.0 size=N/A time=00:08:50.53 bitrate=N/A speed=3.57x    frame=12764 fps= 86 q=-0.0 size=N/A time=00:08:52.36 bitrate=N/A speed=3.57x    frame=12808 fps= 86 q=-0.0 size=N/A time=00:08:54.20 bitrate=N/A speed=3.57x    frame=12854 fps= 86 q=-0.0 size=N/A time=00:08:56.11 bitrate=N/A speed=3.57x    frame=12898 fps= 86 q=-0.0 size=N/A time=00:08:57.95 bitrate=N/A speed=3.57x    frame=12944 fps= 86 q=-0.0 size=N/A time=00:08:59.87 bitrate=N/A speed=3.57x    frame=12986 fps= 86 q=-0.0 size=N/A time=00:09:01.62 bitrate=N/A speed=3.57x    frame=13032 fps= 86 q=-0.0 size=N/A time=00:09:03.54 bitrate=N/A speed=3.57x    frame=13074 fps= 86 q=-0.0 size=N/A time=00:09:05.29 bitrate=N/A speed=3.57x    frame=13120 fps= 86 q=-0.0 size=N/A time=00:09:07.21 bitrate=N/A speed=3.57x    frame=13163 fps= 86 q=-0.0 size=N/A time=00:09:09.00 bitrate=N/A speed=3.57x    frame=13208 fps= 86 q=-0.0 size=N/A time=00:09:10.88 bitrate=N/A speed=3.57x    frame=13252 fps= 86 q=-0.0 size=N/A time=00:09:12.71 bitrate=N/A speed=3.57x    frame=13295 fps= 86 q=-0.0 size=N/A time=00:09:14.51 bitrate=N/A speed=3.57x    frame=13340 fps= 86 q=-0.0 size=N/A time=00:09:16.38 bitrate=N/A speed=3.57x    frame=13386 fps= 86 q=-0.0 size=N/A time=00:09:18.30 bitrate=N/A speed=3.57x    frame=13429 fps= 86 q=-0.0 size=N/A time=00:09:20.10 bitrate=N/A speed=3.57x    frame=13473 fps= 86 q=-0.0 size=N/A time=00:09:21.93 bitrate=N/A speed=3.57x    frame=13517 fps= 86 q=-0.0 size=N/A time=00:09:23.77 bitrate=N/A speed=3.57x    frame=13561 fps= 86 q=-0.0 size=N/A time=00:09:25.60 bitrate=N/A speed=3.57x    frame=13605 fps= 86 q=-0.0 size=N/A time=00:09:27.44 bitrate=N/A speed=3.57x    frame=13648 fps= 86 q=-0.0 size=N/A time=00:09:29.23 bitrate=N/A speed=3.57x    frame=13692 fps= 86 q=-0.0 size=N/A time=00:09:31.07 bitrate=N/A speed=3.57x    frame=13736 fps= 86 q=-0.0 size=N/A time=00:09:32.90 bitrate=N/A speed=3.57x    frame=13777 fps= 86 q=-0.0 size=N/A time=00:09:34.61 bitrate=N/A speed=3.57x    frame=13823 fps= 86 q=-0.0 size=N/A time=00:09:36.53 bitrate=N/A speed=3.57x    frame=13864 fps= 86 q=-0.0 size=N/A time=00:09:38.24 bitrate=N/A speed=3.57x    frame=13910 fps= 86 q=-0.0 size=N/A time=00:09:40.16 bitrate=N/A speed=3.57x    frame=13954 fps= 86 q=-0.0 size=N/A time=00:09:41.99 bitrate=N/A speed=3.57x    frame=13997 fps= 86 q=-0.0 size=N/A time=00:09:43.79 bitrate=N/A speed=3.57x    frame=14039 fps= 86 q=-0.0 size=N/A time=00:09:45.54 bitrate=N/A speed=3.57x    frame=14083 fps= 86 q=-0.0 size=N/A time=00:09:47.37 bitrate=N/A speed=3.57x    frame=14125 fps= 86 q=-0.0 size=N/A time=00:09:49.13 bitrate=N/A speed=3.57x    frame=14167 fps= 86 q=-0.0 size=N/A time=00:09:50.88 bitrate=N/A speed=3.57x    frame=14210 fps= 85 q=-0.0 size=N/A time=00:09:52.67 bitrate=N/A speed=3.57x    frame=14255 fps= 85 q=-0.0 size=N/A time=00:09:54.55 bitrate=N/A speed=3.57x    frame=14300 fps= 86 q=-0.0 size=N/A time=00:09:56.42 bitrate=N/A speed=3.57x    frame=14346 fps= 86 q=-0.0 size=N/A time=00:09:58.34 bitrate=N/A speed=3.57x    frame=14387 fps= 85 q=-0.0 size=N/A time=00:10:00.05 bitrate=N/A speed=3.57x    frame=14432 fps= 86 q=-0.0 size=N/A time=00:10:01.93 bitrate=N/A speed=3.57x    frame=14474 fps= 85 q=-0.0 size=N/A time=00:10:03.68 bitrate=N/A speed=3.57x    frame=14518 fps= 85 q=-0.0 size=N/A time=00:10:05.52 bitrate=N/A speed=3.57x    frame=14562 fps= 85 q=-0.0 size=N/A time=00:10:07.35 bitrate=N/A speed=3.57x    frame=14606 fps= 85 q=-0.0 size=N/A time=00:10:09.19 bitrate=N/A speed=3.57x    frame=14650 fps= 85 q=-0.0 size=N/A time=00:10:11.02 bitrate=N/A speed=3.57x    frame=14693 fps= 85 q=-0.0 size=N/A time=00:10:12.82 bitrate=N/A speed=3.57x    frame=14737 fps= 85 q=-0.0 size=N/A time=00:10:14.65 bitrate=N/A speed=3.57x    frame=14781 fps= 85 q=-0.0 size=N/A time=00:10:16.49 bitrate=N/A speed=3.57x    frame=14826 fps= 85 q=-0.0 size=N/A time=00:10:18.36 bitrate=N/A speed=3.57x    frame=14870 fps= 85 q=-0.0 size=N/A time=00:10:20.20 bitrate=N/A speed=3.57x    frame=14915 fps= 85 q=-0.0 size=N/A time=00:10:22.07 bitrate=N/A speed=3.57x    frame=14961 fps= 86 q=-0.0 size=N/A time=00:10:23.99 bitrate=N/A speed=3.57x    frame=15005 fps= 86 q=-0.0 size=N/A time=00:10:25.83 bitrate=N/A speed=3.57x    frame=15047 fps= 85 q=-0.0 size=N/A time=00:10:27.58 bitrate=N/A speed=3.57x    frame=15094 fps= 86 q=-0.0 size=N/A time=00:10:29.54 bitrate=N/A speed=3.57x    frame=15139 fps= 86 q=-0.0 size=N/A time=00:10:31.42 bitrate=N/A speed=3.57x    frame=15182 fps= 86 q=-0.0 size=N/A time=00:10:33.21 bitrate=N/A speed=3.57x    frame=15227 fps= 86 q=-0.0 size=N/A time=00:10:35.09 bitrate=N/A speed=3.57x    frame=15273 fps= 86 q=-0.0 size=N/A time=00:10:37.01 bitrate=N/A speed=3.57x    frame=15318 fps= 86 q=-0.0 size=N/A time=00:10:38.88 bitrate=N/A speed=3.57x    frame=15361 fps= 86 q=-0.0 size=N/A time=00:10:40.68 bitrate=N/A speed=3.57x    frame=15407 fps= 86 q=-0.0 size=N/A time=00:10:42.60 bitrate=N/A speed=3.57x    frame=15450 fps= 86 q=-0.0 size=N/A time=00:10:44.39 bitrate=N/A speed=3.57x    frame=15493 fps= 86 q=-0.0 size=N/A time=00:10:46.18 bitrate=N/A speed=3.57x    frame=15541 fps= 86 q=-0.0 size=N/A time=00:10:48.18 bitrate=N/A speed=3.57x    frame=15583 fps= 86 q=-0.0 size=N/A time=00:10:49.94 bitrate=N/A speed=3.57x    frame=15629 fps= 86 q=-0.0 size=N/A time=00:10:51.85 bitrate=N/A speed=3.57x    frame=15674 fps= 86 q=-0.0 size=N/A time=00:10:53.73 bitrate=N/A speed=3.57x    frame=15717 fps= 86 q=-0.0 size=N/A time=00:10:55.52 bitrate=N/A speed=3.57x    frame=15764 fps= 86 q=-0.0 size=N/A time=00:10:57.49 bitrate=N/A speed=3.57x    frame=15806 fps= 86 q=-0.0 size=N/A time=00:10:59.24 bitrate=N/A speed=3.57x    frame=15851 fps= 86 q=-0.0 size=N/A time=00:11:01.11 bitrate=N/A speed=3.57x    frame=15896 fps= 86 q=-0.0 size=N/A time=00:11:02.99 bitrate=N/A speed=3.57x    frame=15940 fps= 86 q=-0.0 size=N/A time=00:11:04.83 bitrate=N/A speed=3.57x    frame=15987 fps= 86 q=-0.0 size=N/A time=00:11:06.79 bitrate=N/A speed=3.57x    frame=16032 fps= 86 q=-0.0 size=N/A time=00:11:08.66 bitrate=N/A speed=3.57x    frame=16074 fps= 86 q=-0.0 size=N/A time=00:11:10.41 bitrate=N/A speed=3.57x    frame=16118 fps= 86 q=-0.0 size=N/A time=00:11:12.25 bitrate=N/A speed=3.57x    frame=16165 fps= 86 q=-0.0 size=N/A time=00:11:14.21 bitrate=N/A speed=3.57x    frame=16207 fps= 86 q=-0.0 size=N/A time=00:11:15.96 bitrate=N/A speed=3.57x    frame=16250 fps= 86 q=-0.0 size=N/A time=00:11:17.76 bitrate=N/A speed=3.57x    frame=16297 fps= 86 q=-0.0 size=N/A time=00:11:19.72 bitrate=N/A speed=3.57x    frame=16342 fps= 86 q=-0.0 size=N/A time=00:11:21.59 bitrate=N/A speed=3.57x    frame=16389 fps= 86 q=-0.0 size=N/A time=00:11:23.55 bitrate=N/A speed=3.57x    frame=16432 fps= 86 q=-0.0 size=N/A time=00:11:25.35 bitrate=N/A speed=3.57x    frame=16478 fps= 86 q=-0.0 size=N/A time=00:11:27.26 bitrate=N/A speed=3.57x    frame=16521 fps= 86 q=-0.0 size=N/A time=00:11:29.06 bitrate=N/A speed=3.57x    frame=16566 fps= 86 q=-0.0 size=N/A time=00:11:30.94 bitrate=N/A speed=3.57x    frame=16613 fps= 86 q=-0.0 size=N/A time=00:11:32.90 bitrate=N/A speed=3.57x    frame=16656 fps= 86 q=-0.0 size=N/A time=00:11:34.69 bitrate=N/A speed=3.57x    frame=16700 fps= 86 q=-0.0 size=N/A time=00:11:36.52 bitrate=N/A speed=3.57x    frame=16745 fps= 86 q=-0.0 size=N/A time=00:11:38.40 bitrate=N/A speed=3.57x    frame=16790 fps= 86 q=-0.0 size=N/A time=00:11:40.28 bitrate=N/A speed=3.57x    frame=16834 fps= 86 q=-0.0 size=N/A time=00:11:42.11 bitrate=N/A speed=3.57x    frame=16881 fps= 86 q=-0.0 size=N/A time=00:11:44.07 bitrate=N/A speed=3.57x    frame=16922 fps= 86 q=-0.0 size=N/A time=00:11:45.78 bitrate=N/A speed=3.57x    frame=16969 fps= 86 q=-0.0 size=N/A time=00:11:47.74 bitrate=N/A speed=3.57x    frame=17013 fps= 86 q=-0.0 size=N/A time=00:11:49.58 bitrate=N/A speed=3.57x    frame=17057 fps= 86 q=-0.0 size=N/A time=00:11:51.41 bitrate=N/A speed=3.57x    frame=17102 fps= 86 q=-0.0 size=N/A time=00:11:53.29 bitrate=N/A speed=3.57x    frame=17146 fps= 86 q=-0.0 size=N/A time=00:11:55.13 bitrate=N/A speed=3.57x    frame=17191 fps= 86 q=-0.0 size=N/A time=00:11:57.00 bitrate=N/A speed=3.57x    frame=17237 fps= 86 q=-0.0 size=N/A time=00:11:58.92 bitrate=N/A speed=3.57x    frame=17280 fps= 86 q=-0.0 size=N/A time=00:12:00.72 bitrate=N/A speed=3.57x    frame=17323 fps= 86 q=-0.0 size=N/A time=00:12:02.51 bitrate=N/A speed=3.57x    frame=17369 fps= 86 q=-0.0 size=N/A time=00:12:04.43 bitrate=N/A speed=3.57x    frame=17414 fps= 86 q=-0.0 size=N/A time=00:12:06.30 bitrate=N/A speed=3.57x    frame=17458 fps= 86 q=-0.0 size=N/A time=00:12:08.14 bitrate=N/A speed=3.57x    frame=17503 fps= 86 q=-0.0 size=N/A time=00:12:10.02 bitrate=N/A speed=3.57x    frame=17546 fps= 86 q=-0.0 size=N/A time=00:12:11.81 bitrate=N/A speed=3.57x    frame=17589 fps= 86 q=-0.0 size=N/A time=00:12:13.60 bitrate=N/A speed=3.57x    frame=17633 fps= 86 q=-0.0 size=N/A time=00:12:15.44 bitrate=N/A speed=3.57x    frame=17676 fps= 86 q=-0.0 size=N/A time=00:12:17.23 bitrate=N/A speed=3.57x    frame=17720 fps= 86 q=-0.0 size=N/A time=00:12:19.07 bitrate=N/A speed=3.57x    frame=17765 fps= 86 q=-0.0 size=N/A time=00:12:20.94 bitrate=N/A speed=3.57x    frame=17809 fps= 86 q=-0.0 size=N/A time=00:12:22.78 bitrate=N/A speed=3.57x    frame=17859 fps= 86 q=-0.0 size=N/A time=00:12:24.86 bitrate=N/A speed=3.57x    frame=17903 fps= 86 q=-0.0 size=N/A time=00:12:26.70 bitrate=N/A speed=3.57x    frame=17947 fps= 86 q=-0.0 size=N/A time=00:12:28.53 bitrate=N/A speed=3.57x    frame=17992 fps= 86 q=-0.0 size=N/A time=00:12:30.41 bitrate=N/A speed=3.57x    frame=18038 fps= 86 q=-0.0 size=N/A time=00:12:32.33 bitrate=N/A speed=3.57x    frame=18082 fps= 86 q=-0.0 size=N/A time=00:12:34.17 bitrate=N/A speed=3.57x    frame=18126 fps= 86 q=-0.0 size=N/A time=00:12:36.00 bitrate=N/A speed=3.57x    frame=18169 fps= 86 q=-0.0 size=N/A time=00:12:37.79 bitrate=N/A speed=3.57x    frame=18214 fps= 86 q=-0.0 size=N/A time=00:12:39.67 bitrate=N/A speed=3.57x    frame=18257 fps= 86 q=-0.0 size=N/A time=00:12:41.46 bitrate=N/A speed=3.57x    frame=18304 fps= 86 q=-0.0 size=N/A time=00:12:43.42 bitrate=N/A speed=3.57x    frame=18347 fps= 86 q=-0.0 size=N/A time=00:12:45.22 bitrate=N/A speed=3.57x    frame=18391 fps= 86 q=-0.0 size=N/A time=00:12:47.05 bitrate=N/A speed=3.57x    frame=18436 fps= 86 q=-0.0 size=N/A time=00:12:48.93 bitrate=N/A speed=3.57x    frame=18479 fps= 86 q=-0.0 size=N/A time=00:12:50.72 bitrate=N/A speed=3.57x    frame=18520 fps= 86 q=-0.0 size=N/A time=00:12:52.43 bitrate=N/A speed=3.57x    frame=18560 fps= 86 q=-0.0 size=N/A time=00:12:54.10 bitrate=N/A speed=3.57x    frame=18603 fps= 86 q=-0.0 size=N/A time=00:12:55.90 bitrate=N/A speed=3.57x    frame=18646 fps= 86 q=-0.0 size=N/A time=00:12:57.69 bitrate=N/A speed=3.57x    frame=18690 fps= 86 q=-0.0 size=N/A time=00:12:59.52 bitrate=N/A speed=3.57x    frame=18728 fps= 86 q=-0.0 size=N/A time=00:13:01.11 bitrate=N/A speed=3.57x    frame=18770 fps= 86 q=-0.0 size=N/A time=00:13:02.86 bitrate=N/A speed=3.57x    frame=18812 fps= 86 q=-0.0 size=N/A time=00:13:04.61 bitrate=N/A speed=3.57x    frame=18856 fps= 86 q=-0.0 size=N/A time=00:13:06.45 bitrate=N/A speed=3.57x    frame=18898 fps= 86 q=-0.0 size=N/A time=00:13:08.20 bitrate=N/A speed=3.57x    frame=18942 fps= 86 q=-0.0 size=N/A time=00:13:10.03 bitrate=N/A speed=3.57x    frame=18986 fps= 86 q=-0.0 size=N/A time=00:13:11.87 bitrate=N/A speed=3.57x    frame=19031 fps= 86 q=-0.0 size=N/A time=00:13:13.75 bitrate=N/A speed=3.57x    frame=19074 fps= 86 q=-0.0 size=N/A time=00:13:15.54 bitrate=N/A speed=3.57x    frame=19117 fps= 86 q=-0.0 size=N/A time=00:13:17.33 bitrate=N/A speed=3.57x    frame=19161 fps= 86 q=-0.0 size=N/A time=00:13:19.17 bitrate=N/A speed=3.57x    frame=19206 fps= 86 q=-0.0 size=N/A time=00:13:21.05 bitrate=N/A speed=3.57x    frame=19250 fps= 86 q=-0.0 size=N/A time=00:13:22.88 bitrate=N/A speed=3.57x    frame=19292 fps= 86 q=-0.0 size=N/A time=00:13:24.63 bitrate=N/A speed=3.57x    frame=19337 fps= 86 q=-0.0 size=N/A time=00:13:26.51 bitrate=N/A speed=3.57x    frame=19381 fps= 86 q=-0.0 size=N/A time=00:13:28.34 bitrate=N/A speed=3.57x    frame=19423 fps= 86 q=-0.0 size=N/A time=00:13:30.10 bitrate=N/A speed=3.57x    frame=19466 fps= 86 q=-0.0 size=N/A time=00:13:31.89 bitrate=N/A speed=3.57x    frame=19509 fps= 86 q=-0.0 size=N/A time=00:13:33.68 bitrate=N/A speed=3.57x    frame=19554 fps= 86 q=-0.0 size=N/A time=00:13:35.56 bitrate=N/A speed=3.57x    frame=19597 fps= 86 q=-0.0 size=N/A time=00:13:37.35 bitrate=N/A speed=3.57x    frame=19639 fps= 85 q=-0.0 size=N/A time=00:13:39.10 bitrate=N/A speed=3.57x    frame=19681 fps= 85 q=-0.0 size=N/A time=00:13:40.86 bitrate=N/A speed=3.57x    frame=19725 fps= 85 q=-0.0 size=N/A time=00:13:42.69 bitrate=N/A speed=3.57x    frame=19766 fps= 85 q=-0.0 size=N/A time=00:13:44.40 bitrate=N/A speed=3.57x    frame=19812 fps= 85 q=-0.0 size=N/A time=00:13:46.32 bitrate=N/A speed=3.57x    frame=19855 fps= 85 q=-0.0 size=N/A time=00:13:48.11 bitrate=N/A speed=3.57x    frame=19902 fps= 85 q=-0.0 size=N/A time=00:13:50.07 bitrate=N/A speed=3.57x    frame=19946 fps= 85 q=-0.0 size=N/A time=00:13:51.91 bitrate=N/A speed=3.57x    frame=19989 fps= 85 q=-0.0 size=N/A time=00:13:53.70 bitrate=N/A speed=3.57x    frame=20034 fps= 85 q=-0.0 size=N/A time=00:13:55.58 bitrate=N/A speed=3.57x    frame=20077 fps= 85 q=-0.0 size=N/A time=00:13:57.37 bitrate=N/A speed=3.57x    frame=20123 fps= 85 q=-0.0 size=N/A time=00:13:59.29 bitrate=N/A speed=3.57x    frame=20169 fps= 86 q=-0.0 size=N/A time=00:14:01.21 bitrate=N/A speed=3.57x    frame=20213 fps= 86 q=-0.0 size=N/A time=00:14:03.05 bitrate=N/A speed=3.57x    frame=20257 fps= 86 q=-0.0 size=N/A time=00:14:04.88 bitrate=N/A speed=3.57x    frame=20302 fps= 86 q=-0.0 size=N/A time=00:14:06.76 bitrate=N/A speed=3.57x    frame=20345 fps= 86 q=-0.0 size=N/A time=00:14:08.55 bitrate=N/A speed=3.57x    frame=20390 fps= 86 q=-0.0 size=N/A time=00:14:10.43 bitrate=N/A speed=3.57x    frame=20435 fps= 86 q=-0.0 size=N/A time=00:14:12.30 bitrate=N/A speed=3.57x    frame=20480 fps= 86 q=-0.0 size=N/A time=00:14:14.18 bitrate=N/A speed=3.57x    frame=20524 fps= 86 q=-0.0 size=N/A time=00:14:16.02 bitrate=N/A speed=3.57x    frame=20572 fps= 86 q=-0.0 size=N/A time=00:14:18.02 bitrate=N/A speed=3.57x    frame=20616 fps= 86 q=-0.0 size=N/A time=00:14:19.85 bitrate=N/A speed=3.57x    frame=20661 fps= 86 q=-0.0 size=N/A time=00:14:21.73 bitrate=N/A speed=3.57x    frame=20708 fps= 86 q=-0.0 size=N/A time=00:14:23.69 bitrate=N/A speed=3.57x    frame=20754 fps= 86 q=-0.0 size=N/A time=00:14:25.61 bitrate=N/A speed=3.57x    frame=20799 fps= 86 q=-0.0 size=N/A time=00:14:27.49 bitrate=N/A speed=3.57x    frame=20843 fps= 86 q=-0.0 size=N/A time=00:14:29.32 bitrate=N/A speed=3.57x    frame=20886 fps= 86 q=-0.0 size=N/A time=00:14:31.12 bitrate=N/A speed=3.57x    frame=20929 fps= 86 q=-0.0 size=N/A time=00:14:32.91 bitrate=N/A speed=3.57x    frame=20974 fps= 86 q=-0.0 size=N/A time=00:14:34.79 bitrate=N/A speed=3.57x    frame=21020 fps= 86 q=-0.0 size=N/A time=00:14:36.70 bitrate=N/A speed=3.57x    frame=21065 fps= 86 q=-0.0 size=N/A time=00:14:38.58 bitrate=N/A speed=3.57x    frame=21110 fps= 86 q=-0.0 size=N/A time=00:14:40.46 bitrate=N/A speed=3.57x    frame=21155 fps= 86 q=-0.0 size=N/A time=00:14:42.33 bitrate=N/A speed=3.57x    frame=21199 fps= 86 q=-0.0 size=N/A time=00:14:44.17 bitrate=N/A speed=3.57x    frame=21244 fps= 86 q=-0.0 size=N/A time=00:14:46.05 bitrate=N/A speed=3.57x    frame=21288 fps= 86 q=-0.0 size=N/A time=00:14:47.88 bitrate=N/A speed=3.57x    frame=21333 fps= 86 q=-0.0 size=N/A time=00:14:49.76 bitrate=N/A speed=3.57x    frame=21377 fps= 86 q=-0.0 size=N/A time=00:14:51.59 bitrate=N/A speed=3.57x    frame=21423 fps= 86 q=-0.0 size=N/A time=00:14:53.51 bitrate=N/A speed=3.57x    frame=21467 fps= 86 q=-0.0 size=N/A time=00:14:55.35 bitrate=N/A speed=3.57x    frame=21512 fps= 86 q=-0.0 size=N/A time=00:14:57.22 bitrate=N/A speed=3.57x    frame=21557 fps= 86 q=-0.0 size=N/A time=00:14:59.10 bitrate=N/A speed=3.57x    frame=21603 fps= 86 q=-0.0 size=N/A time=00:15:01.02 bitrate=N/A speed=3.57x    frame=21647 fps= 86 q=-0.0 size=N/A time=00:15:02.86 bitrate=N/A speed=3.57x    frame=21692 fps= 86 q=-0.0 size=N/A time=00:15:04.73 bitrate=N/A speed=3.57x    frame=21737 fps= 86 q=-0.0 size=N/A time=00:15:06.61 bitrate=N/A speed=3.57x    frame=21781 fps= 86 q=-0.0 size=N/A time=00:15:08.44 bitrate=N/A speed=3.57x    frame=21824 fps= 86 q=-0.0 size=N/A time=00:15:10.24 bitrate=N/A speed=3.57x    frame=21866 fps= 86 q=-0.0 size=N/A time=00:15:11.99 bitrate=N/A speed=3.57x    frame=21909 fps= 86 q=-0.0 size=N/A time=00:15:13.78 bitrate=N/A speed=3.57x    frame=21955 fps= 86 q=-0.0 size=N/A time=00:15:15.70 bitrate=N/A speed=3.57x    frame=22002 fps= 86 q=-0.0 size=N/A time=00:15:17.66 bitrate=N/A speed=3.57x    frame=22044 fps= 86 q=-0.0 size=N/A time=00:15:19.41 bitrate=N/A speed=3.57x    frame=22086 fps= 86 q=-0.0 size=N/A time=00:15:21.17 bitrate=N/A speed=3.57x    frame=22131 fps= 86 q=-0.0 size=N/A time=00:15:23.04 bitrate=N/A speed=3.57x    frame=22177 fps= 86 q=-0.0 size=N/A time=00:15:24.96 bitrate=N/A speed=3.57x    frame=22219 fps= 86 q=-0.0 size=N/A time=00:15:26.71 bitrate=N/A speed=3.57x    frame=22263 fps= 86 q=-0.0 size=N/A time=00:15:28.55 bitrate=N/A speed=3.57x    frame=22309 fps= 86 q=-0.0 size=N/A time=00:15:30.47 bitrate=N/A speed=3.57x    frame=22353 fps= 86 q=-0.0 size=N/A time=00:15:32.30 bitrate=N/A speed=3.57x    frame=22396 fps= 86 q=-0.0 size=N/A time=00:15:34.09 bitrate=N/A speed=3.57x    frame=22440 fps= 86 q=-0.0 size=N/A time=00:15:35.93 bitrate=N/A speed=3.57x    frame=22486 fps= 86 q=-0.0 size=N/A time=00:15:37.85 bitrate=N/A speed=3.57x    frame=22531 fps= 86 q=-0.0 size=N/A time=00:15:39.73 bitrate=N/A speed=3.57x    frame=22575 fps= 86 q=-0.0 size=N/A time=00:15:41.56 bitrate=N/A speed=3.57x    frame=22620 fps= 86 q=-0.0 size=N/A time=00:15:43.44 bitrate=N/A speed=3.57x    frame=22665 fps= 86 q=-0.0 size=N/A time=00:15:45.31 bitrate=N/A speed=3.57x    frame=22710 fps= 86 q=-0.0 size=N/A time=00:15:47.19 bitrate=N/A speed=3.57x    frame=22754 fps= 86 q=-0.0 size=N/A time=00:15:49.03 bitrate=N/A speed=3.57x    frame=22797 fps= 86 q=-0.0 size=N/A time=00:15:50.82 bitrate=N/A speed=3.57x    frame=22840 fps= 86 q=-0.0 size=N/A time=00:15:52.61 bitrate=N/A speed=3.57x    frame=22884 fps= 86 q=-0.0 size=N/A time=00:15:54.45 bitrate=N/A speed=3.57x    frame=22929 fps= 86 q=-0.0 size=N/A time=00:15:56.33 bitrate=N/A speed=3.57x    frame=22972 fps= 86 q=-0.0 size=N/A time=00:15:58.12 bitrate=N/A speed=3.57x    frame=23019 fps= 86 q=-0.0 size=N/A time=00:16:00.08 bitrate=N/A speed=3.57x    frame=23064 fps= 86 q=-0.0 size=N/A time=00:16:01.96 bitrate=N/A speed=3.57x    frame=23107 fps= 86 q=-0.0 size=N/A time=00:16:03.75 bitrate=N/A speed=3.57x    frame=23154 fps= 86 q=-0.0 size=N/A time=00:16:05.71 bitrate=N/A speed=3.57x    frame=23197 fps= 86 q=-0.0 size=N/A time=00:16:07.50 bitrate=N/A speed=3.57x    frame=23241 fps= 86 q=-0.0 size=N/A time=00:16:09.34 bitrate=N/A speed=3.57x    frame=23287 fps= 86 q=-0.0 size=N/A time=00:16:11.26 bitrate=N/A speed=3.57x    frame=23334 fps= 86 q=-0.0 size=N/A time=00:16:13.22 bitrate=N/A speed=3.57x    frame=23378 fps= 86 q=-0.0 size=N/A time=00:16:15.05 bitrate=N/A speed=3.57x    frame=23424 fps= 86 q=-0.0 size=N/A time=00:16:16.97 bitrate=N/A speed=3.57x    frame=23469 fps= 86 q=-0.0 size=N/A time=00:16:18.85 bitrate=N/A speed=3.57x    frame=23514 fps= 86 q=-0.0 size=N/A time=00:16:20.72 bitrate=N/A speed=3.57x    frame=23557 fps= 86 q=-0.0 size=N/A time=00:16:22.52 bitrate=N/A speed=3.57x    frame=23603 fps= 86 q=-0.0 size=N/A time=00:16:24.44 bitrate=N/A speed=3.57x    frame=23646 fps= 86 q=-0.0 size=N/A time=00:16:26.23 bitrate=N/A speed=3.57x    frame=23693 fps= 86 q=-0.0 size=N/A time=00:16:28.19 bitrate=N/A speed=3.57x    frame=23735 fps= 86 q=-0.0 size=N/A time=00:16:29.94 bitrate=N/A speed=3.57x    frame=23781 fps= 86 q=-0.0 size=N/A time=00:16:31.86 bitrate=N/A speed=3.57x    frame=23827 fps= 86 q=-0.0 size=N/A time=00:16:33.78 bitrate=N/A speed=3.57x    frame=23872 fps= 86 q=-0.0 size=N/A time=00:16:35.66 bitrate=N/A speed=3.57x    frame=23915 fps= 86 q=-0.0 size=N/A time=00:16:37.45 bitrate=N/A speed=3.57x    frame=23960 fps= 86 q=-0.0 size=N/A time=00:16:39.33 bitrate=N/A speed=3.57x    frame=24002 fps= 86 q=-0.0 size=N/A time=00:16:41.08 bitrate=N/A speed=3.57x    frame=24047 fps= 86 q=-0.0 size=N/A time=00:16:42.96 bitrate=N/A speed=3.57x    frame=24090 fps= 86 q=-0.0 size=N/A time=00:16:44.75 bitrate=N/A speed=3.57x    frame=24135 fps= 86 q=-0.0 size=N/A time=00:16:46.63 bitrate=N/A speed=3.57x    frame=24178 fps= 86 q=-0.0 size=N/A time=00:16:48.42 bitrate=N/A speed=3.57x    frame=24225 fps= 86 q=-0.0 size=N/A time=00:16:50.38 bitrate=N/A speed=3.57x    frame=24269 fps= 86 q=-0.0 size=N/A time=00:16:52.21 bitrate=N/A speed=3.57x    frame=24314 fps= 86 q=-0.0 size=N/A time=00:16:54.09 bitrate=N/A speed=3.57x    frame=24356 fps= 86 q=-0.0 size=N/A time=00:16:55.84 bitrate=N/A speed=3.57x    frame=24398 fps= 86 q=-0.0 size=N/A time=00:16:57.59 bitrate=N/A speed=3.57x    frame=24439 fps= 86 q=-0.0 size=N/A time=00:16:59.30 bitrate=N/A speed=3.57x    frame=24481 fps= 86 q=-0.0 size=N/A time=00:17:01.06 bitrate=N/A speed=3.57x    frame=24525 fps= 86 q=-0.0 size=N/A time=00:17:02.89 bitrate=N/A speed=3.57x    frame=24569 fps= 86 q=-0.0 size=N/A time=00:17:04.73 bitrate=N/A speed=3.57x    frame=24614 fps= 86 q=-0.0 size=N/A time=00:17:06.60 bitrate=N/A speed=3.57x    frame=24659 fps= 86 q=-0.0 size=N/A time=00:17:08.48 bitrate=N/A speed=3.57x    frame=24703 fps= 86 q=-0.0 size=N/A time=00:17:10.32 bitrate=N/A speed=3.57x    frame=24747 fps= 86 q=-0.0 size=N/A time=00:17:12.15 bitrate=N/A speed=3.57x    frame=24793 fps= 86 q=-0.0 size=N/A time=00:17:14.07 bitrate=N/A speed=3.57x    frame=24835 fps= 86 q=-0.0 size=N/A time=00:17:15.82 bitrate=N/A speed=3.57x    frame=24880 fps= 86 q=-0.0 size=N/A time=00:17:17.70 bitrate=N/A speed=3.57x    frame=24926 fps= 86 q=-0.0 size=N/A time=00:17:19.62 bitrate=N/A speed=3.57x    frame=24970 fps= 86 q=-0.0 size=N/A time=00:17:21.45 bitrate=N/A speed=3.57x    frame=25013 fps= 86 q=-0.0 size=N/A time=00:17:23.25 bitrate=N/A speed=3.57x    frame=25058 fps= 86 q=-0.0 size=N/A time=00:17:25.12 bitrate=N/A speed=3.57x    frame=25098 fps= 86 q=-0.0 size=N/A time=00:17:26.79 bitrate=N/A speed=3.57x    frame=25142 fps= 86 q=-0.0 size=N/A time=00:17:28.63 bitrate=N/A speed=3.57x    frame=25187 fps= 86 q=-0.0 size=N/A time=00:17:30.50 bitrate=N/A speed=3.57x    frame=25230 fps= 86 q=-0.0 size=N/A time=00:17:32.30 bitrate=N/A speed=3.57x    frame=25274 fps= 86 q=-0.0 size=N/A time=00:17:34.13 bitrate=N/A speed=3.57x    frame=25319 fps= 86 q=-0.0 size=N/A time=00:17:36.01 bitrate=N/A speed=3.57x    frame=25361 fps= 86 q=-0.0 size=N/A time=00:17:37.76 bitrate=N/A speed=3.57x    frame=25407 fps= 86 q=-0.0 size=N/A time=00:17:39.68 bitrate=N/A speed=3.57x    frame=25452 fps= 86 q=-0.0 size=N/A time=00:17:41.56 bitrate=N/A speed=3.57x    frame=25494 fps= 86 q=-0.0 size=N/A time=00:17:43.31 bitrate=N/A speed=3.57x    frame=25537 fps= 86 q=-0.0 size=N/A time=00:17:45.10 bitrate=N/A speed=3.57x    frame=25582 fps= 86 q=-0.0 size=N/A time=00:17:46.98 bitrate=N/A speed=3.57x    frame=25626 fps= 86 q=-0.0 size=N/A time=00:17:48.81 bitrate=N/A speed=3.57x    frame=25670 fps= 86 q=-0.0 size=N/A time=00:17:50.65 bitrate=N/A speed=3.57x    frame=25715 fps= 86 q=-0.0 size=N/A time=00:17:52.52 bitrate=N/A speed=3.57x    frame=25759 fps= 86 q=-0.0 size=N/A time=00:17:54.36 bitrate=N/A speed=3.57x    frame=25802 fps= 86 q=-0.0 size=N/A time=00:17:56.15 bitrate=N/A speed=3.57x    frame=25847 fps= 86 q=-0.0 size=N/A time=00:17:58.03 bitrate=N/A speed=3.57x    frame=25891 fps= 86 q=-0.0 size=N/A time=00:17:59.87 bitrate=N/A speed=3.57x    frame=25937 fps= 86 q=-0.0 size=N/A time=00:18:01.78 bitrate=N/A speed=3.57x    frame=25980 fps= 86 q=-0.0 size=N/A time=00:18:03.58 bitrate=N/A speed=3.57x    frame=26023 fps= 86 q=-0.0 size=N/A time=00:18:05.37 bitrate=N/A speed=3.57x    frame=26067 fps= 86 q=-0.0 size=N/A time=00:18:07.21 bitrate=N/A speed=3.57x    frame=26110 fps= 86 q=-0.0 size=N/A time=00:18:09.00 bitrate=N/A speed=3.57x    frame=26152 fps= 86 q=-0.0 size=N/A time=00:18:10.75 bitrate=N/A speed=3.57x    frame=26198 fps= 86 q=-0.0 size=N/A time=00:18:12.67 bitrate=N/A speed=3.57x    frame=26244 fps= 86 q=-0.0 size=N/A time=00:18:14.59 bitrate=N/A speed=3.57x    frame=26287 fps= 86 q=-0.0 size=N/A time=00:18:16.38 bitrate=N/A speed=3.57x    frame=26333 fps= 86 q=-0.0 size=N/A time=00:18:18.30 bitrate=N/A speed=3.57x    frame=26378 fps= 86 q=-0.0 size=N/A time=00:18:20.18 bitrate=N/A speed=3.57x    frame=26423 fps= 86 q=-0.0 size=N/A time=00:18:22.05 bitrate=N/A speed=3.57x    frame=26468 fps= 86 q=-0.0 size=N/A time=00:18:23.93 bitrate=N/A speed=3.57x    frame=26512 fps= 86 q=-0.0 size=N/A time=00:18:25.77 bitrate=N/A speed=3.57x    frame=26555 fps= 86 q=-0.0 size=N/A time=00:18:27.56 bitrate=N/A speed=3.57x    frame=26598 fps= 86 q=-0.0 size=N/A time=00:18:29.35 bitrate=N/A speed=3.57x    frame=26645 fps= 86 q=-0.0 size=N/A time=00:18:31.31 bitrate=N/A speed=3.57x    frame=26689 fps= 86 q=-0.0 size=N/A time=00:18:33.15 bitrate=N/A speed=3.57x    frame=26732 fps= 86 q=-0.0 size=N/A time=00:18:34.94 bitrate=N/A speed=3.57x    frame=26775 fps= 86 q=-0.0 size=N/A time=00:18:36.74 bitrate=N/A speed=3.57x    frame=26819 fps= 86 q=-0.0 size=N/A time=00:18:38.57 bitrate=N/A speed=3.57x    frame=26864 fps= 86 q=-0.0 size=N/A time=00:18:40.45 bitrate=N/A speed=3.57x    frame=26907 fps= 86 q=-0.0 size=N/A time=00:18:42.24 bitrate=N/A speed=3.57x    frame=26951 fps= 86 q=-0.0 size=N/A time=00:18:44.08 bitrate=N/A speed=3.57x    frame=26998 fps= 86 q=-0.0 size=N/A time=00:18:46.04 bitrate=N/A speed=3.57x    frame=27041 fps= 86 q=-0.0 size=N/A time=00:18:47.83 bitrate=N/A speed=3.57x    frame=27082 fps= 86 q=-0.0 size=N/A time=00:18:49.54 bitrate=N/A speed=3.57x    frame=27126 fps= 86 q=-0.0 size=N/A time=00:18:51.38 bitrate=N/A speed=3.57x    frame=27171 fps= 86 q=-0.0 size=N/A time=00:18:53.25 bitrate=N/A speed=3.57x    frame=27218 fps= 86 q=-0.0 size=N/A time=00:18:55.21 bitrate=N/A speed=3.57x    frame=27261 fps= 86 q=-0.0 size=N/A time=00:18:57.01 bitrate=N/A speed=3.57x    frame=27306 fps= 86 q=-0.0 size=N/A time=00:18:58.88 bitrate=N/A speed=3.57x    frame=27350 fps= 86 q=-0.0 size=N/A time=00:19:00.72 bitrate=N/A speed=3.57x    frame=27395 fps= 86 q=-0.0 size=N/A time=00:19:02.59 bitrate=N/A speed=3.57x    frame=27439 fps= 86 q=-0.0 size=N/A time=00:19:04.43 bitrate=N/A speed=3.57x    frame=27484 fps= 86 q=-0.0 size=N/A time=00:19:06.31 bitrate=N/A speed=3.57x    frame=27530 fps= 86 q=-0.0 size=N/A time=00:19:08.23 bitrate=N/A speed=3.57x    frame=27575 fps= 86 q=-0.0 size=N/A time=00:19:10.10 bitrate=N/A speed=3.57x    frame=27622 fps= 86 q=-0.0 size=N/A time=00:19:12.06 bitrate=N/A speed=3.57x    frame=27665 fps= 86 q=-0.0 size=N/A time=00:19:13.86 bitrate=N/A speed=3.57x    frame=27709 fps= 86 q=-0.0 size=N/A time=00:19:15.69 bitrate=N/A speed=3.57x    frame=27754 fps= 86 q=-0.0 size=N/A time=00:19:17.57 bitrate=N/A speed=3.57x    frame=27799 fps= 86 q=-0.0 size=N/A time=00:19:19.44 bitrate=N/A speed=3.57x    frame=27844 fps= 86 q=-0.0 size=N/A time=00:19:21.32 bitrate=N/A speed=3.57x    frame=27887 fps= 86 q=-0.0 size=N/A time=00:19:23.12 bitrate=N/A speed=3.57x    frame=27933 fps= 86 q=-0.0 size=N/A time=00:19:25.03 bitrate=N/A speed=3.57x    frame=27979 fps= 86 q=-0.0 size=N/A time=00:19:26.95 bitrate=N/A speed=3.57x    frame=28025 fps= 86 q=-0.0 size=N/A time=00:19:28.87 bitrate=N/A speed=3.57x    frame=28065 fps= 86 q=-0.0 size=N/A time=00:19:30.54 bitrate=N/A speed=3.57x    frame=28112 fps= 86 q=-0.0 size=N/A time=00:19:32.50 bitrate=N/A speed=3.57x    frame=28156 fps= 86 q=-0.0 size=N/A time=00:19:34.33 bitrate=N/A speed=3.57x    frame=28201 fps= 86 q=-0.0 size=N/A time=00:19:36.21 bitrate=N/A speed=3.57x    frame=28244 fps= 86 q=-0.0 size=N/A time=00:19:38.01 bitrate=N/A speed=3.57x    frame=28291 fps= 86 q=-0.0 size=N/A time=00:19:39.97 bitrate=N/A speed=3.57x    frame=28334 fps= 86 q=-0.0 size=N/A time=00:19:41.76 bitrate=N/A speed=3.57x    frame=28378 fps= 86 q=-0.0 size=N/A time=00:19:43.59 bitrate=N/A speed=3.57x    frame=28423 fps= 86 q=-0.0 size=N/A time=00:19:45.47 bitrate=N/A speed=3.57x    frame=28467 fps= 86 q=-0.0 size=N/A time=00:19:47.31 bitrate=N/A speed=3.57x    frame=28509 fps= 86 q=-0.0 size=N/A time=00:19:49.06 bitrate=N/A speed=3.57x    frame=28554 fps= 86 q=-0.0 size=N/A time=00:19:50.93 bitrate=N/A speed=3.57x    frame=28598 fps= 86 q=-0.0 size=N/A time=00:19:52.77 bitrate=N/A speed=3.57x    frame=28641 fps= 86 q=-0.0 size=N/A time=00:19:54.56 bitrate=N/A speed=3.57x    frame=28687 fps= 86 q=-0.0 size=N/A time=00:19:56.48 bitrate=N/A speed=3.57x    frame=28730 fps= 86 q=-0.0 size=N/A time=00:19:58.28 bitrate=N/A speed=3.57x    frame=28775 fps= 86 q=-0.0 size=N/A time=00:20:00.15 bitrate=N/A speed=3.57x    frame=28818 fps= 86 q=-0.0 size=N/A time=00:20:01.95 bitrate=N/A speed=3.57x    frame=28863 fps= 86 q=-0.0 size=N/A time=00:20:03.82 bitrate=N/A speed=3.57x    frame=28910 fps= 86 q=-0.0 size=N/A time=00:20:05.78 bitrate=N/A speed=3.57x    frame=28954 fps= 86 q=-0.0 size=N/A time=00:20:07.62 bitrate=N/A speed=3.57x    frame=28999 fps= 86 q=-0.0 size=N/A time=00:20:09.49 bitrate=N/A speed=3.57x    frame=29043 fps= 86 q=-0.0 size=N/A time=00:20:11.33 bitrate=N/A speed=3.57x    frame=29089 fps= 86 q=-0.0 size=N/A time=00:20:13.25 bitrate=N/A speed=3.57x    frame=29134 fps= 86 q=-0.0 size=N/A time=00:20:15.13 bitrate=N/A speed=3.57x    frame=29177 fps= 86 q=-0.0 size=N/A time=00:20:16.92 bitrate=N/A speed=3.57x    frame=29221 fps= 86 q=-0.0 size=N/A time=00:20:18.75 bitrate=N/A speed=3.57x    frame=29266 fps= 86 q=-0.0 size=N/A time=00:20:20.63 bitrate=N/A speed=3.57x    frame=29310 fps= 86 q=-0.0 size=N/A time=00:20:22.47 bitrate=N/A speed=3.57x    frame=29354 fps= 86 q=-0.0 size=N/A time=00:20:24.30 bitrate=N/A speed=3.57x    frame=29398 fps= 86 q=-0.0 size=N/A time=00:20:26.14 bitrate=N/A speed=3.57x    frame=29443 fps= 86 q=-0.0 size=N/A time=00:20:28.01 bitrate=N/A speed=3.57x    frame=29487 fps= 86 q=-0.0 size=N/A time=00:20:29.85 bitrate=N/A speed=3.57x    frame=29531 fps= 86 q=-0.0 size=N/A time=00:20:31.68 bitrate=N/A speed=3.57x    frame=29575 fps= 86 q=-0.0 size=N/A time=00:20:33.52 bitrate=N/A speed=3.57x    frame=29618 fps= 86 q=-0.0 size=N/A time=00:20:35.31 bitrate=N/A speed=3.57x    frame=29662 fps= 86 q=-0.0 size=N/A time=00:20:37.15 bitrate=N/A speed=3.57x    frame=29708 fps= 86 q=-0.0 size=N/A time=00:20:39.07 bitrate=N/A speed=3.57x    frame=29753 fps= 86 q=-0.0 size=N/A time=00:20:40.94 bitrate=N/A speed=3.57x    frame=29796 fps= 86 q=-0.0 size=N/A time=00:20:42.74 bitrate=N/A speed=3.57x    frame=29842 fps= 86 q=-0.0 size=N/A time=00:20:44.66 bitrate=N/A speed=3.57x    frame=29884 fps= 86 q=-0.0 size=N/A time=00:20:46.41 bitrate=N/A speed=3.57x    frame=29929 fps= 86 q=-0.0 size=N/A time=00:20:48.28 bitrate=N/A speed=3.57x    frame=29971 fps= 86 q=-0.0 size=N/A time=00:20:50.04 bitrate=N/A speed=3.57x    frame=30016 fps= 86 q=-0.0 size=N/A time=00:20:51.91 bitrate=N/A speed=3.57x    frame=30061 fps= 86 q=-0.0 size=N/A time=00:20:53.79 bitrate=N/A speed=3.57x    frame=30106 fps= 86 q=-0.0 size=N/A time=00:20:55.67 bitrate=N/A speed=3.57x    frame=30153 fps= 86 q=-0.0 size=N/A time=00:20:57.63 bitrate=N/A speed=3.57x    frame=30198 fps= 86 q=-0.0 size=N/A time=00:20:59.50 bitrate=N/A speed=3.57x    frame=30242 fps= 86 q=-0.0 size=N/A time=00:21:01.34 bitrate=N/A speed=3.57x    frame=30287 fps= 86 q=-0.0 size=N/A time=00:21:03.22 bitrate=N/A speed=3.57x    frame=30331 fps= 86 q=-0.0 size=N/A time=00:21:05.05 bitrate=N/A speed=3.57x    frame=30377 fps= 86 q=-0.0 size=N/A time=00:21:06.97 bitrate=N/A speed=3.57x    frame=30420 fps= 86 q=-0.0 size=N/A time=00:21:08.76 bitrate=N/A speed=3.57x    frame=30463 fps= 86 q=-0.0 size=N/A time=00:21:10.56 bitrate=N/A speed=3.57x    frame=30509 fps= 86 q=-0.0 size=N/A time=00:21:12.47 bitrate=N/A speed=3.57x    frame=30552 fps= 86 q=-0.0 size=N/A time=00:21:14.27 bitrate=N/A speed=3.57x    frame=30597 fps= 86 q=-0.0 size=N/A time=00:21:16.14 bitrate=N/A speed=3.57x    frame=30639 fps= 86 q=-0.0 size=N/A time=00:21:17.90 bitrate=N/A speed=3.57x    frame=30683 fps= 86 q=-0.0 size=N/A time=00:21:19.73 bitrate=N/A speed=3.57x    frame=30727 fps= 86 q=-0.0 size=N/A time=00:21:21.57 bitrate=N/A speed=3.57x    frame=30770 fps= 86 q=-0.0 size=N/A time=00:21:23.36 bitrate=N/A speed=3.57x    frame=30813 fps= 86 q=-0.0 size=N/A time=00:21:25.15 bitrate=N/A speed=3.57x    frame=30858 fps= 86 q=-0.0 size=N/A time=00:21:27.03 bitrate=N/A speed=3.57x    frame=30904 fps= 86 q=-0.0 size=N/A time=00:21:28.95 bitrate=N/A speed=3.57x    frame=30948 fps= 86 q=-0.0 size=N/A time=00:21:30.78 bitrate=N/A speed=3.57x    frame=30991 fps= 86 q=-0.0 size=N/A time=00:21:32.58 bitrate=N/A speed=3.57x    frame=31033 fps= 86 q=-0.0 size=N/A time=00:21:34.33 bitrate=N/A speed=3.57x    frame=31080 fps= 86 q=-0.0 size=N/A time=00:21:36.29 bitrate=N/A speed=3.57x    frame=31124 fps= 86 q=-0.0 size=N/A time=00:21:38.13 bitrate=N/A speed=3.57x    frame=31167 fps= 86 q=-0.0 size=N/A time=00:21:39.92 bitrate=N/A speed=3.57x    frame=31212 fps= 86 q=-0.0 size=N/A time=00:21:41.80 bitrate=N/A speed=3.57x    frame=31257 fps= 86 q=-0.0 size=N/A time=00:21:43.67 bitrate=N/A speed=3.57x    frame=31301 fps= 86 q=-0.0 size=N/A time=00:21:45.51 bitrate=N/A speed=3.57x    frame=31344 fps= 86 q=-0.0 size=N/A time=00:21:47.30 bitrate=N/A speed=3.57x    frame=31388 fps= 86 q=-0.0 size=N/A time=00:21:49.14 bitrate=N/A speed=3.57x    frame=31431 fps= 86 q=-0.0 size=N/A time=00:21:50.93 bitrate=N/A speed=3.57x    frame=31476 fps= 86 q=-0.0 size=N/A time=00:21:52.81 bitrate=N/A speed=3.57x    frame=31519 fps= 86 q=-0.0 size=N/A time=00:21:54.60 bitrate=N/A speed=3.57x    frame=31564 fps= 86 q=-0.0 size=N/A time=00:21:56.48 bitrate=N/A speed=3.57x    frame=31610 fps= 86 q=-0.0 size=N/A time=00:21:58.40 bitrate=N/A speed=3.57x    frame=31655 fps= 86 q=-0.0 size=N/A time=00:22:00.27 bitrate=N/A speed=3.57x    frame=31699 fps= 86 q=-0.0 size=N/A time=00:22:02.11 bitrate=N/A speed=3.57x    frame=31743 fps= 86 q=-0.0 size=N/A time=00:22:03.94 bitrate=N/A speed=3.57x    frame=31786 fps= 86 q=-0.0 size=N/A time=00:22:05.74 bitrate=N/A speed=3.57x    frame=31831 fps= 86 q=-0.0 size=N/A time=00:22:07.61 bitrate=N/A speed=3.57x    frame=31875 fps= 86 q=-0.0 size=N/A time=00:22:09.45 bitrate=N/A speed=3.57x    frame=31920 fps= 86 q=-0.0 size=N/A time=00:22:11.33 bitrate=N/A speed=3.57x    frame=31967 fps= 86 q=-0.0 size=N/A time=00:22:13.29 bitrate=N/A speed=3.57x    frame=32013 fps= 86 q=-0.0 size=N/A time=00:22:15.20 bitrate=N/A speed=3.57x    frame=32056 fps= 86 q=-0.0 size=N/A time=00:22:17.00 bitrate=N/A speed=3.57x    frame=32100 fps= 86 q=-0.0 size=N/A time=00:22:18.83 bitrate=N/A speed=3.57x    frame=32144 fps= 86 q=-0.0 size=N/A time=00:22:20.67 bitrate=N/A speed=3.57x    frame=32189 fps= 86 q=-0.0 size=N/A time=00:22:22.54 bitrate=N/A speed=3.57x    frame=32233 fps= 86 q=-0.0 size=N/A time=00:22:24.38 bitrate=N/A speed=3.57x    frame=32277 fps= 86 q=-0.0 size=N/A time=00:22:26.21 bitrate=N/A speed=3.57x    frame=32321 fps= 86 q=-0.0 size=N/A time=00:22:28.05 bitrate=N/A speed=3.57x    frame=32366 fps= 86 q=-0.0 size=N/A time=00:22:29.93 bitrate=N/A speed=3.57x    frame=32412 fps= 86 q=-0.0 size=N/A time=00:22:31.85 bitrate=N/A speed=3.57x    frame=32458 fps= 86 q=-0.0 size=N/A time=00:22:33.76 bitrate=N/A speed=3.57x    frame=32501 fps= 86 q=-0.0 size=N/A time=00:22:35.56 bitrate=N/A speed=3.57x    frame=32547 fps= 86 q=-0.0 size=N/A time=00:22:37.48 bitrate=N/A speed=3.57x    frame=32591 fps= 86 q=-0.0 size=N/A time=00:22:39.31 bitrate=N/A speed=3.57x    frame=32635 fps= 86 q=-0.0 size=N/A time=00:22:41.15 bitrate=N/A speed=3.57x    frame=32679 fps= 86 q=-0.0 size=N/A time=00:22:42.98 bitrate=N/A speed=3.57x    frame=32723 fps= 86 q=-0.0 size=N/A time=00:22:44.82 bitrate=N/A speed=3.57x    frame=32769 fps= 86 q=-0.0 size=N/A time=00:22:46.74 bitrate=N/A speed=3.57x    frame=32813 fps= 86 q=-0.0 size=N/A time=00:22:48.57 bitrate=N/A speed=3.57x    frame=32855 fps= 86 q=-0.0 size=N/A time=00:22:50.32 bitrate=N/A speed=3.57x    frame=32898 fps= 86 q=-0.0 size=N/A time=00:22:52.12 bitrate=N/A speed=3.57x    frame=32943 fps= 86 q=-0.0 size=N/A time=00:22:53.99 bitrate=N/A speed=3.57x    frame=32986 fps= 86 q=-0.0 size=N/A time=00:22:55.79 bitrate=N/A speed=3.57x    frame=33031 fps= 86 q=-0.0 size=N/A time=00:22:57.66 bitrate=N/A speed=3.57x    frame=33074 fps= 86 q=-0.0 size=N/A time=00:22:59.46 bitrate=N/A speed=3.57x    frame=33120 fps= 86 q=-0.0 size=N/A time=00:23:01.38 bitrate=N/A speed=3.57x    frame=33162 fps= 86 q=-0.0 size=N/A time=00:23:03.13 bitrate=N/A speed=3.57x    frame=33207 fps= 86 q=-0.0 size=N/A time=00:23:05.00 bitrate=N/A speed=3.57x    frame=33248 fps= 86 q=-0.0 size=N/A time=00:23:06.71 bitrate=N/A speed=3.57x    frame=33290 fps= 86 q=-0.0 size=N/A time=00:23:08.47 bitrate=N/A speed=3.57x    frame=33334 fps= 86 q=-0.0 size=N/A time=00:23:10.30 bitrate=N/A speed=3.57x    frame=33379 fps= 86 q=-0.0 size=N/A time=00:23:12.18 bitrate=N/A speed=3.57x    frame=33423 fps= 86 q=-0.0 size=N/A time=00:23:14.01 bitrate=N/A speed=3.57x    frame=33467 fps= 86 q=-0.0 size=N/A time=00:23:15.85 bitrate=N/A speed=3.57x    frame=33512 fps= 86 q=-0.0 size=N/A time=00:23:17.72 bitrate=N/A speed=3.57x    frame=33555 fps= 86 q=-0.0 size=N/A time=00:23:19.52 bitrate=N/A speed=3.57x    frame=33598 fps= 86 q=-0.0 size=N/A time=00:23:21.31 bitrate=N/A speed=3.57x    frame=33641 fps= 86 q=-0.0 size=N/A time=00:23:23.11 bitrate=N/A speed=3.57x    frame=33685 fps= 86 q=-0.0 size=N/A time=00:23:24.94 bitrate=N/A speed=3.57x    frame=33728 fps= 86 q=-0.0 size=N/A time=00:23:26.73 bitrate=N/A speed=3.57x    frame=33773 fps= 86 q=-0.0 size=N/A time=00:23:28.61 bitrate=N/A speed=3.57x    frame=33817 fps= 86 q=-0.0 size=N/A time=00:23:30.45 bitrate=N/A speed=3.57x    frame=33860 fps= 86 q=-0.0 size=N/A time=00:23:32.24 bitrate=N/A speed=3.57x    frame=33906 fps= 86 q=-0.0 size=N/A time=00:23:34.16 bitrate=N/A speed=3.57x    frame=33949 fps= 86 q=-0.0 size=N/A time=00:23:35.95 bitrate=N/A speed=3.57x    frame=33993 fps= 86 q=-0.0 size=N/A time=00:23:37.79 bitrate=N/A speed=3.57x    frame=34036 fps= 86 q=-0.0 size=N/A time=00:23:39.58 bitrate=N/A speed=3.57x    frame=34080 fps= 86 q=-0.0 size=N/A time=00:23:41.42 bitrate=N/A speed=3.57x    frame=34125 fps= 86 q=-0.0 size=N/A time=00:23:43.29 bitrate=N/A speed=3.57x    frame=34166 fps= 86 q=-0.0 size=N/A time=00:23:45.00 bitrate=N/A speed=3.57x    frame=34208 fps= 86 q=-0.0 size=N/A time=00:23:46.75 bitrate=N/A speed=3.57x    frame=34254 fps= 86 q=-0.0 size=N/A time=00:23:48.67 bitrate=N/A speed=3.57x    frame=34296 fps= 86 q=-0.0 size=N/A time=00:23:50.42 bitrate=N/A speed=3.57x    frame=34340 fps= 86 q=-0.0 size=N/A time=00:23:52.26 bitrate=N/A speed=3.57x    frame=34384 fps= 86 q=-0.0 size=N/A time=00:23:54.09 bitrate=N/A speed=3.57x    frame=34427 fps= 86 q=-0.0 size=N/A time=00:23:55.89 bitrate=N/A speed=3.57x    frame=34472 fps= 86 q=-0.0 size=N/A time=00:23:57.76 bitrate=N/A speed=3.57x    frame=34513 fps= 86 q=-0.0 size=N/A time=00:23:59.47 bitrate=N/A speed=3.57x    frame=34559 fps= 86 q=-0.0 size=N/A time=00:24:01.39 bitrate=N/A speed=3.57x    frame=34602 fps= 86 q=-0.0 size=N/A time=00:24:03.19 bitrate=N/A speed=3.57x    frame=34644 fps= 86 q=-0.0 size=N/A time=00:24:04.94 bitrate=N/A speed=3.57x    frame=34691 fps= 86 q=-0.0 size=N/A time=00:24:06.90 bitrate=N/A speed=3.57x    frame=34733 fps= 86 q=-0.0 size=N/A time=00:24:08.65 bitrate=N/A speed=3.57x    frame=34778 fps= 86 q=-0.0 size=N/A time=00:24:10.53 bitrate=N/A speed=3.57x    frame=34822 fps= 86 q=-0.0 size=N/A time=00:24:12.36 bitrate=N/A speed=3.57x    frame=34868 fps= 86 q=-0.0 size=N/A time=00:24:14.28 bitrate=N/A speed=3.57x    frame=34912 fps= 86 q=-0.0 size=N/A time=00:24:16.12 bitrate=N/A speed=3.57x    [Parsed_libvmaf_10 @ 000001facdba3880] VMAF score: 95.534883
[out#0/null @ 000001facd3c8900] video:15005KiB audio:273212KiB subtitle:0KiB other streams:0KiB global headers:0KiB muxing overhead: unknown
frame=34920 fps= 85 q=-0.0 Lsize=N/A time=00:24:16.45 bitrate=N/A speed=3.56x    
